<svg width="82" height="82" viewBox="0 0 82 82" fill="none" xmlns="http://www.w3.org/2000/svg">
<rect width="82" height="82" rx="41" fill="url(#paint0_linear_548_2019)" fill-opacity="0.05"/>
<rect x="8" y="8" width="66" height="66" rx="33" fill="url(#paint1_linear_548_2019)" fill-opacity="0.1"/>
<rect x="8.5" y="8.5" width="65" height="65" rx="32.5" stroke="url(#paint2_linear_548_2019)" stroke-opacity="0.2"/>
<g clip-path="url(#clip0_548_2019)">
<path d="M44.7451 37.2524C44.3423 36.8472 43.8958 36.4881 43.4137 36.1816C42.1368 35.3639 40.6523 34.9294 39.1361 34.9294C37.0316 34.9255 35.0126 35.7617 33.5271 37.2524L26.3204 44.4647C24.8374 45.9506 24.0039 47.9637 24.0026 50.063C23.9998 54.4437 27.5487 57.9971 31.9294 57.9999C34.0306 58.0072 36.0478 57.1751 37.5327 55.6883L43.4817 49.7394C43.5898 49.6323 43.6501 49.4861 43.6492 49.3339C43.6474 49.021 43.3923 48.7688 43.0794 48.7706H42.8528C41.6099 48.775 40.3781 48.5363 39.2268 48.0681C39.0147 47.9808 38.7709 48.03 38.6092 48.1927L34.3317 52.4759C33.0034 53.8042 30.8498 53.8042 29.5215 52.4759C28.1932 51.1476 28.1932 48.9941 29.5215 47.6658L36.7566 40.4364C38.0838 39.1109 40.2339 39.1109 41.5611 40.4364C42.4555 41.2783 43.8507 41.2783 44.7451 40.4364C45.13 40.0513 45.3633 39.5405 45.4024 38.9973C45.4437 38.3483 45.2044 37.7128 44.7451 37.2524Z" fill="#E7FE55"/>
<path d="M55.6742 26.3233C52.5764 23.2256 47.5539 23.2256 44.4562 26.3233L38.5129 32.2609C38.3497 32.4249 38.3026 32.6716 38.3939 32.8842C38.4841 33.0974 38.695 33.2342 38.9265 33.2297H39.1361C40.3775 33.2275 41.6073 33.468 42.7564 33.938C42.9685 34.0253 43.2123 33.976 43.3739 33.8133L47.6402 29.5528C48.9685 28.2245 51.122 28.2245 52.4503 29.5528C53.7786 30.881 53.7786 33.0346 52.4503 34.3629L47.1359 39.6716L47.0906 39.7226L45.2323 41.5696C43.905 42.8952 41.755 42.8952 40.4278 41.5696C39.5333 40.7278 38.1381 40.7278 37.2437 41.5696C36.8564 41.9577 36.6229 42.473 36.5865 43.02C36.545 43.669 36.7844 44.3046 37.2437 44.765C37.8995 45.4236 38.6667 45.9607 39.5099 46.3514C39.6289 46.408 39.7479 46.4534 39.8669 46.5044C39.9858 46.5553 40.1105 46.595 40.2294 46.6403C40.3484 46.6857 40.473 46.7253 40.592 46.7593L40.9263 46.8499C41.1529 46.9066 41.3796 46.9519 41.6118 46.9916C41.8916 47.0331 42.1734 47.0596 42.456 47.0709H42.8526H42.8866L43.2266 47.0313C43.3512 47.0256 43.4815 46.9973 43.6288 46.9973H43.8214L44.2124 46.9406L44.3937 46.9066L44.7223 46.8387H44.7846C46.1763 46.4891 47.4471 45.7685 48.4616 44.7537L55.674 37.5413C58.7719 34.4436 58.7719 29.4211 55.6742 26.3233Z" fill="#E7FE55"/>
</g>
<defs>
<linearGradient id="paint0_linear_548_2019" x1="41" y1="0" x2="41" y2="82" gradientUnits="userSpaceOnUse">
<stop stop-color="#CAFF33"/>
<stop offset="1" stop-color="#CAFF33" stop-opacity="0"/>
</linearGradient>
<linearGradient id="paint1_linear_548_2019" x1="41" y1="-35.7027" x2="41" y2="178.351" gradientUnits="userSpaceOnUse">
<stop stop-color="#CAFF33"/>
<stop offset="0.467671" stop-color="#CAFF33" stop-opacity="0"/>
</linearGradient>
<linearGradient id="paint2_linear_548_2019" x1="41" y1="-106.608" x2="41" y2="133.757" gradientUnits="userSpaceOnUse">
<stop stop-color="#CAFF33"/>
<stop offset="0.716291" stop-color="#CAFF33" stop-opacity="0"/>
</linearGradient>
<clipPath id="clip0_548_2019">
<rect width="34" height="34" fill="white" transform="translate(24 24)"/>
</clipPath>
</defs>
</svg>
