<svg width="82" height="82" viewBox="0 0 82 82" fill="none" xmlns="http://www.w3.org/2000/svg">
<rect width="82" height="82" rx="41" fill="url(#paint0_linear_600_718)" fill-opacity="0.05"/>
<rect x="8" y="8" width="66" height="66" rx="33" fill="url(#paint1_linear_600_718)" fill-opacity="0.1"/>
<rect x="8.5" y="8.5" width="65" height="65" rx="32.5" stroke="url(#paint2_linear_600_718)" stroke-opacity="0.2"/>
<path fill-rule="evenodd" clip-rule="evenodd" d="M26.125 33.8809H55.875V31.697C55.875 30.8637 55.5367 30.0637 54.9308 29.4741C54.3355 28.8954 53.5293 28.5684 52.6875 28.5684H29.3125C28.4707 28.5684 27.6645 28.8954 27.0692 29.4741C26.4633 30.0637 26.125 30.8637 26.125 31.697V33.8809Z" fill="#E7FE55"/>
<path d="M56 46.5C56 48.1569 54.6569 49.5 53 49.5H29C27.3431 49.5 26 48.1569 26 46.5V36H56V46.5ZM32.7197 39.9004L32.4404 43.2998H34.0645C34.384 43.2998 34.6049 43.3351 34.7275 43.4043C34.8502 43.4683 34.9121 43.5669 34.9121 43.7002C34.912 43.8388 34.8427 43.9484 34.7041 44.0283C34.5708 44.103 34.3944 44.1396 34.1758 44.1396C33.9305 44.1396 33.6773 44.1054 33.416 44.0361C33.16 43.9668 32.9144 43.8658 32.6797 43.7324L32.04 45.124C32.3334 45.2893 32.6751 45.4147 33.0645 45.5C33.459 45.5853 33.8535 45.6279 34.248 45.6279C34.8185 45.6279 35.2958 45.5376 35.6797 45.3564C36.0637 45.1698 36.347 44.9291 36.5283 44.6357C36.7148 44.3372 36.8076 44.012 36.8076 43.6602C36.8076 43.1269 36.6213 42.6974 36.248 42.3721C35.88 42.0414 35.3035 41.876 34.5195 41.876H34.2324L34.2725 41.3242H36.4404V39.9004H32.7197ZM39.7207 39.7725C39.2249 39.7725 38.7852 39.8895 38.4014 40.124C38.0227 40.3534 37.7235 40.6892 37.5049 41.1318C37.2915 41.5692 37.1855 42.0922 37.1855 42.7002C37.1856 43.3081 37.2916 43.8337 37.5049 44.2764C37.7235 44.7136 38.0228 45.0495 38.4014 45.2842C38.7852 45.5133 39.225 45.6279 39.7207 45.6279C40.2167 45.6279 40.6545 45.5135 41.0332 45.2842C41.4171 45.0496 41.7154 44.7135 41.9287 44.2764C42.1474 43.8337 42.2568 43.3081 42.2568 42.7002C42.2568 42.0922 42.1474 41.5692 41.9287 41.1318C41.7154 40.6893 41.4171 40.3533 41.0332 40.124C40.6545 39.8894 40.2167 39.7725 39.7207 39.7725ZM48.2119 42.46C47.9295 42.46 47.6735 42.521 47.4443 42.6436C47.2204 42.7662 47.044 42.9451 46.916 43.1797C46.7881 43.4142 46.7247 43.6944 46.7246 44.0195C46.7246 44.5049 46.8633 44.8867 47.1406 45.1641C47.4179 45.4412 47.7748 45.58 48.2119 45.5801C48.6492 45.5801 49.0069 45.4414 49.2842 45.1641C49.5615 44.8867 49.7002 44.5049 49.7002 44.0195C49.7001 43.6944 49.6358 43.4142 49.5078 43.1797C49.3799 42.9453 49.2018 42.7661 48.9727 42.6436C48.7487 42.5209 48.4946 42.46 48.2119 42.46ZM47.3965 39.9004L43.5723 45.5H44.9238L48.748 39.9004H47.3965ZM48.2119 43.3242C48.3132 43.3242 48.396 43.3802 48.46 43.4922C48.5292 43.5988 48.5644 43.7745 48.5645 44.0195C48.5645 44.2648 48.5292 44.4437 48.46 44.5557C48.396 44.6623 48.3132 44.7158 48.2119 44.7158C48.1107 44.7157 48.0253 44.6622 47.9561 44.5557C47.8922 44.4436 47.8604 44.2646 47.8604 44.0195C47.8604 43.7746 47.8922 43.5988 47.9561 43.4922C48.0253 43.3803 48.1107 43.3243 48.2119 43.3242ZM39.7207 41.2842C40.1474 41.2842 40.3613 41.7562 40.3613 42.7002C40.3613 43.6441 40.1473 44.1162 39.7207 44.1162C39.2943 44.1159 39.0811 43.6438 39.0811 42.7002C39.0811 41.7565 39.2943 41.2845 39.7207 41.2842ZM44.1084 39.8203C43.8257 39.8203 43.5692 39.8812 43.3398 40.0039C43.116 40.1266 42.9405 40.3055 42.8125 40.54C42.6845 40.7747 42.6201 41.0546 42.6201 41.3799C42.6201 41.8652 42.7588 42.2471 43.0361 42.5244C43.3134 42.8016 43.6712 42.9404 44.1084 42.9404C44.5456 42.9404 44.9034 42.8017 45.1807 42.5244C45.458 42.2471 45.5957 41.8652 45.5957 41.3799C45.5957 41.0546 45.5323 40.7747 45.4043 40.54C45.2763 40.3054 45.0975 40.1266 44.8682 40.0039C44.6442 39.8813 44.391 39.8203 44.1084 39.8203ZM44.1084 40.6836C44.2096 40.6837 44.2925 40.7398 44.3564 40.8516C44.4258 40.9582 44.4599 41.1346 44.46 41.3799C44.46 41.6251 44.4257 41.804 44.3564 41.916C44.2925 42.0226 44.2096 42.0761 44.1084 42.0762C44.0071 42.0762 43.9219 42.0226 43.8525 41.916C43.7885 41.804 43.7559 41.6252 43.7559 41.3799C43.7559 41.1346 43.7885 40.9582 43.8525 40.8516C43.9218 40.7399 44.0072 40.6836 44.1084 40.6836Z" fill="#E7FE55"/>
<defs>
<linearGradient id="paint0_linear_600_718" x1="41" y1="0" x2="41" y2="82" gradientUnits="userSpaceOnUse">
<stop stop-color="#CAFF33"/>
<stop offset="1" stop-color="#CAFF33" stop-opacity="0"/>
</linearGradient>
<linearGradient id="paint1_linear_600_718" x1="41" y1="-35.7027" x2="41" y2="178.351" gradientUnits="userSpaceOnUse">
<stop stop-color="#CAFF33"/>
<stop offset="0.467671" stop-color="#CAFF33" stop-opacity="0"/>
</linearGradient>
<linearGradient id="paint2_linear_600_718" x1="41" y1="-106.608" x2="41" y2="133.757" gradientUnits="userSpaceOnUse">
<stop stop-color="#CAFF33"/>
<stop offset="0.716291" stop-color="#CAFF33" stop-opacity="0"/>
</linearGradient>
</defs>
</svg>
