<svg width="82" height="83" viewBox="0 0 82 83" fill="none" xmlns="http://www.w3.org/2000/svg">
<rect width="82" height="83" rx="41" fill="url(#paint0_linear_548_2010)" fill-opacity="0.05"/>
<rect x="8" y="8" width="66" height="67" rx="33" fill="url(#paint1_linear_548_2010)" fill-opacity="0.1"/>
<rect x="8.5" y="8.5" width="65" height="66" rx="32.5" stroke="url(#paint2_linear_548_2010)" stroke-opacity="0.2"/>
<path d="M49.5 27.2812H32.5C29.5707 27.2812 27.1875 29.7345 27.1875 32.75V50.25C27.1875 53.2655 29.5707 55.7188 32.5 55.7188H49.5C52.4293 55.7188 54.8125 53.2655 54.8125 50.25V32.75C54.8125 29.7345 52.4293 27.2812 49.5 27.2812ZM41.0032 32.5597C43.3471 32.5597 45.2532 34.5219 45.2532 36.9347C45.2532 39.3475 43.3471 41.3097 41.0032 41.3097C38.6593 41.3097 36.7532 39.3475 36.7532 36.9347C36.7532 34.5219 38.6593 32.5597 41.0032 32.5597ZM47.375 50.8209H34.625C34.0374 50.8209 33.5625 50.3309 33.5625 49.7272C33.5625 45.5053 36.8998 42.0709 41 42.0709C45.1002 42.0709 48.4375 45.5053 48.4375 49.7272C48.4375 50.3309 47.9626 50.8209 47.375 50.8209Z" fill="#E7FE55"/>
<defs>
<linearGradient id="paint0_linear_548_2010" x1="41" y1="0" x2="41" y2="83" gradientUnits="userSpaceOnUse">
<stop stop-color="#CAFF33"/>
<stop offset="1" stop-color="#CAFF33" stop-opacity="0"/>
</linearGradient>
<linearGradient id="paint1_linear_548_2010" x1="41" y1="-36.3649" x2="41" y2="180.932" gradientUnits="userSpaceOnUse">
<stop stop-color="#CAFF33"/>
<stop offset="0.467671" stop-color="#CAFF33" stop-opacity="0"/>
</linearGradient>
<linearGradient id="paint2_linear_548_2010" x1="41" y1="-108.345" x2="41" y2="135.662" gradientUnits="userSpaceOnUse">
<stop stop-color="#CAFF33"/>
<stop offset="0.716291" stop-color="#CAFF33" stop-opacity="0"/>
</linearGradient>
</defs>
</svg>
