<svg width="82" height="82" viewBox="0 0 82 82" fill="none" xmlns="http://www.w3.org/2000/svg">
<rect width="82" height="82" rx="41" fill="url(#paint0_linear_600_730)" fill-opacity="0.05"/>
<rect x="8" y="8" width="66" height="66" rx="33" fill="url(#paint1_linear_600_730)" fill-opacity="0.1"/>
<rect x="8.5" y="8.5" width="65" height="65" rx="32.5" stroke="url(#paint2_linear_600_730)" stroke-opacity="0.2"/>
<g clip-path="url(#clip0_600_730)">
<path d="M27.4531 58H24.9961C24.446 58 24 57.554 24 57.0039V45.0508C24 44.5007 24.446 44.0547 24.9961 44.0547H27.4531C28.0032 44.0547 28.4492 44.5007 28.4492 45.0508V57.0039C28.4492 57.554 28.0032 58 27.4531 58Z" fill="#E7FE55"/>
<path d="M56.755 47.1633C55.9871 46.7406 55.0499 46.7694 54.3094 47.2385L50.665 49.5465C50.5549 50.4869 50.1409 51.3594 49.4664 52.0501C48.6467 52.8893 47.5502 53.3516 46.3789 53.3516H41.4266C40.8902 53.3516 40.4287 52.9394 40.4035 52.4036C40.3765 51.8316 40.8323 51.3594 41.3984 51.3594H46.3789C47.6791 51.3594 48.7334 50.2861 48.7025 48.979C48.6724 47.7103 47.6044 46.7109 46.3353 46.7109H40.7344L40.0847 46.2236C38.7907 45.2532 37.1874 44.7188 35.57 44.7188C34.2065 44.7188 32.8678 45.0896 31.6986 45.791L30.4414 46.5454V56.6719H47.1841C48.1523 56.6719 49.0994 56.3897 49.9097 55.8599L56.9115 51.2818C57.5931 50.8361 58 50.0838 58 49.2695C58 48.3929 57.5229 47.5859 56.755 47.1633Z" fill="#E7FE55"/>
<path d="M38.0781 24C42.6552 24 46.3789 27.7237 46.3789 32.3008C46.3789 36.8778 42.6552 40.6016 38.0781 40.6016C33.5011 40.6016 29.7773 36.8778 29.7773 32.3008C29.7773 27.7237 33.5011 24 38.0781 24ZM34.7188 29.7207C34.2864 29.7207 33.9355 30.0696 33.9355 30.502C33.9356 30.9342 34.2865 31.2832 34.7168 31.2832H37.0771V36.7393C37.0771 37.2154 37.4623 37.5996 37.9385 37.5996C38.4124 37.5994 38.7988 37.2152 38.7988 36.7393V31.2832H41.1592C41.5914 31.2832 41.9404 30.9322 41.9404 30.502C41.9444 30.0696 41.5934 29.7207 41.1611 29.7207H34.7188ZM34.7188 27.4004C34.2865 27.4004 33.9357 27.7505 33.9355 28.1807C33.9355 28.613 34.2864 28.9639 34.7188 28.9619H41.1631C41.5934 28.9619 41.9443 28.613 41.9443 28.1807C41.9442 27.7505 41.5933 27.4004 41.1611 27.4004H34.7188Z" fill="#E7FE55"/>
<path d="M57.906 37.4012C57.742 37.0511 57.3904 36.8275 57.0039 36.8275H55.554C54.6736 33.3505 52.6888 30.2039 49.9056 27.899C48.6109 26.8268 47.1686 25.9609 45.6342 25.3194C47.3318 27.1554 48.3711 29.6088 48.3711 32.3008C48.3711 33.1287 48.2721 33.9338 48.0867 34.7057C48.5492 35.3685 48.9403 36.0802 49.2479 36.8275H48.3711C47.9846 36.8275 47.633 37.0511 47.469 37.4012C47.3051 37.7512 47.3585 38.1644 47.6059 38.4613L51.9223 43.641C52.1116 43.8681 52.3919 43.9994 52.6875 43.9994C52.9831 43.9994 53.2635 43.8681 53.4527 43.641L57.7691 38.4613C58.0165 38.1644 58.0699 37.7511 57.906 37.4012Z" fill="#E7FE55"/>
</g>
<defs>
<linearGradient id="paint0_linear_600_730" x1="41" y1="0" x2="41" y2="82" gradientUnits="userSpaceOnUse">
<stop stop-color="#CAFF33"/>
<stop offset="1" stop-color="#CAFF33" stop-opacity="0"/>
</linearGradient>
<linearGradient id="paint1_linear_600_730" x1="41" y1="-35.7027" x2="41" y2="178.351" gradientUnits="userSpaceOnUse">
<stop stop-color="#CAFF33"/>
<stop offset="0.467671" stop-color="#CAFF33" stop-opacity="0"/>
</linearGradient>
<linearGradient id="paint2_linear_600_730" x1="41" y1="-106.608" x2="41" y2="133.757" gradientUnits="userSpaceOnUse">
<stop stop-color="#CAFF33"/>
<stop offset="0.716291" stop-color="#CAFF33" stop-opacity="0"/>
</linearGradient>
<clipPath id="clip0_600_730">
<rect width="34" height="34" fill="white" transform="translate(24 24)"/>
</clipPath>
</defs>
</svg>
