<svg width="82" height="82" viewBox="0 0 82 82" fill="none" xmlns="http://www.w3.org/2000/svg">
<rect width="82" height="82" rx="41" fill="url(#paint0_linear_548_2041)" fill-opacity="0.05"/>
<rect x="8" y="8" width="66" height="66" rx="33" fill="url(#paint1_linear_548_2041)" fill-opacity="0.1"/>
<rect x="8.5" y="8.5" width="65" height="65" rx="32.5" stroke="url(#paint2_linear_548_2041)" stroke-opacity="0.2"/>
<path fill-rule="evenodd" clip-rule="evenodd" d="M50.5625 29.3125V52.6875C50.5625 54.4481 49.1356 55.875 47.375 55.875H34.625C32.8644 55.875 31.4375 54.4481 31.4375 52.6875V29.3125C31.4375 27.5519 32.8644 26.125 34.625 26.125H47.375C49.1356 26.125 50.5625 27.5519 50.5625 29.3125ZM38.3438 31.4375H43.6562C44.2428 31.4375 44.7188 30.9615 44.7188 30.375C44.7188 29.7885 44.2428 29.3125 43.6562 29.3125H38.3438C37.7572 29.3125 37.2812 29.7885 37.2812 30.375C37.2812 30.9615 37.7572 31.4375 38.3438 31.4375ZM37.9963 38.3777L37.8412 37.6042C37.7264 37.0294 37.1665 36.6554 36.5917 36.7702C36.0169 36.886 35.6429 37.4459 35.7576 38.0208C35.7576 38.0208 36.0849 39.6549 36.087 39.6676L36.7628 43.0443C36.9614 44.0377 37.8337 44.7528 38.8463 44.7528H43.4788C44.4924 44.7528 45.3647 44.0377 45.5634 43.0443L46.2424 39.6485C46.3051 39.3361 46.2232 39.0121 46.0224 38.7666C45.8206 38.5201 45.5188 38.3777 45.2001 38.3777H37.9963ZM39.0376 45.8153C38.4511 45.8153 37.9751 46.2913 37.9751 46.8778C37.9751 47.4642 38.4511 47.9403 39.0376 47.9403C39.6241 47.9403 40.1001 47.4642 40.1001 46.8778C40.1001 46.2913 39.6241 45.8153 39.0376 45.8153ZM43.2876 45.8153C42.7011 45.8153 42.2251 46.2913 42.2251 46.8778C42.2251 47.4642 42.7011 47.9403 43.2876 47.9403C43.8741 47.9403 44.3501 47.4642 44.3501 46.8778C44.3501 46.2913 43.8741 45.8153 43.2876 45.8153Z" fill="#E7FE55"/>
<defs>
<linearGradient id="paint0_linear_548_2041" x1="41" y1="0" x2="41" y2="82" gradientUnits="userSpaceOnUse">
<stop stop-color="#CAFF33"/>
<stop offset="1" stop-color="#CAFF33" stop-opacity="0"/>
</linearGradient>
<linearGradient id="paint1_linear_548_2041" x1="41" y1="-35.7027" x2="41" y2="178.351" gradientUnits="userSpaceOnUse">
<stop stop-color="#CAFF33"/>
<stop offset="0.467671" stop-color="#CAFF33" stop-opacity="0"/>
</linearGradient>
<linearGradient id="paint2_linear_548_2041" x1="41" y1="-106.608" x2="41" y2="133.757" gradientUnits="userSpaceOnUse">
<stop stop-color="#CAFF33"/>
<stop offset="0.716291" stop-color="#CAFF33" stop-opacity="0"/>
</linearGradient>
</defs>
</svg>
