<svg width="20" height="12" viewBox="0 0 20 12" fill="none" xmlns="http://www.w3.org/2000/svg"><path d="M19.9984 5.98771C19.9984 6.25293 19.8931 6.50728 19.7055 6.69482C19.518 6.88235 19.2637 6.98771 18.9984 6.98771H3.41254L6.70544 10.2807C6.80095 10.373 6.87713 10.4833 6.92954 10.6053C6.98195 10.7273 7.00954 10.8585 7.01069 10.9913C7.01185 11.1241 6.98654 11.2558 6.93626 11.3787C6.88598 11.5016 6.81173 11.6132 6.71784 11.7071C6.62394 11.801 6.51229 11.8753 6.3894 11.9255C6.2665 11.9758 6.13482 12.0011 6.00204 12C5.86926 11.9988 5.73804 11.9712 5.61604 11.9188C5.49403 11.8664 5.38369 11.7902 5.29144 11.6947L0.292042 6.69541C0.104997 6.50737 0 6.25294 0 5.98771C0 5.72249 0.104997 5.46805 0.292042 5.28001L5.29144 0.280712C5.48004 0.0985542 5.73265 -0.00224062 5.99484 3.78025e-05C6.25704 0.00231622 6.50785 0.107485 6.69326 0.292894C6.87867 0.478302 6.98384 0.729114 6.98612 0.991311C6.98839 1.25351 6.8876 1.50611 6.70544 1.69471L3.41254 4.98771H18.9984C19.2637 4.98771 19.518 5.09307 19.7055 5.28061C19.8931 5.46814 19.9984 5.7225 19.9984 5.98771Z" fill="white"></path></svg>