<svg width="40" height="32" viewBox="0 0 40 32" fill="none" xmlns="http://www.w3.org/2000/svg">
<path d="M2.44874 22.4673C1.63799 17.2152 0.826788 11.9632 0.0151436 6.71118C-0.0244408 6.45309 0.0139949 6.18911 0.125554 5.95286C0.237114 5.71662 0.416748 5.51879 0.641572 5.38459C0.866397 5.2504 1.12624 5.1859 1.38799 5.19931C1.64975 5.21273 1.90157 5.30346 2.11137 5.45994L9.69354 11.1237C9.89055 11.271 10.1156 11.3767 10.3551 11.4343C10.5945 11.4919 10.8432 11.5003 11.086 11.4589C11.3287 11.4175 11.5605 11.3272 11.767 11.1935C11.9735 11.0598 12.1505 10.8856 12.2872 10.6814L18.5998 1.24529C18.7537 1.01598 18.962 0.828008 19.2062 0.698009C19.4505 0.568011 19.7231 0.5 20 0.5C20.2769 0.5 20.5495 0.568011 20.7938 0.698009C21.038 0.828008 21.2463 1.01598 21.4002 1.24529L27.7128 10.6761C27.8495 10.8802 28.0264 11.0545 28.233 11.1882C28.4395 11.3218 28.6713 11.4121 28.914 11.4535C29.1568 11.4949 29.4055 11.4866 29.6449 11.429C29.8843 11.3713 30.1095 11.2657 30.3065 11.1184L37.8886 5.45462C38.0984 5.29814 38.3503 5.20742 38.612 5.194C38.8738 5.18058 39.1336 5.24508 39.3584 5.37928C39.5833 5.51348 39.7629 5.7113 39.8744 5.94755C39.986 6.1838 40.0244 6.44778 39.9849 6.70586C39.1732 11.9579 38.362 17.2099 37.5513 22.462L2.44874 22.4673Z" fill="white"/>
<path d="M2.44922 25.6716H37.5544V29.6764C37.5544 29.9159 37.507 30.153 37.415 30.3743C37.323 30.5956 37.1882 30.7966 37.0182 30.966C36.8481 31.1353 36.6463 31.2697 36.4242 31.3613C36.202 31.453 35.964 31.5001 35.7235 31.5001H4.28009C3.79451 31.5001 3.32882 31.308 2.98547 30.966C2.64211 30.624 2.44922 30.1601 2.44922 29.6764V25.6716Z" fill="white"/>
</svg>
