<svg width="41" height="32" viewBox="0 0 41 32" fill="none" xmlns="http://www.w3.org/2000/svg">
<path d="M2.94874 22.4673C2.13799 17.2152 1.32679 11.9632 0.515144 6.71118C0.475559 6.45309 0.513995 6.18911 0.625554 5.95286C0.737114 5.71662 0.916748 5.51879 1.14157 5.38459C1.3664 5.2504 1.62624 5.1859 1.88799 5.19931C2.14975 5.21273 2.40157 5.30346 2.61137 5.45994L10.1935 11.1237C10.3906 11.271 10.6156 11.3767 10.8551 11.4343C11.0945 11.4919 11.3432 11.5003 11.586 11.4589C11.8287 11.4175 12.0605 11.3272 12.267 11.1935C12.4736 11.0598 12.6505 10.8856 12.7872 10.6814L19.0998 1.24529C19.2537 1.01598 19.462 0.828008 19.7062 0.698009C19.9505 0.568011 20.2231 0.5 20.5 0.5C20.7769 0.5 21.0495 0.568011 21.2938 0.698009C21.538 0.828008 21.7463 1.01598 21.9002 1.24529L28.2128 10.6761C28.3495 10.8803 28.5264 11.0545 28.733 11.1882C28.9395 11.3218 29.1713 11.4121 29.414 11.4535C29.6568 11.4949 29.9055 11.4866 30.1449 11.429C30.3843 11.3713 30.6095 11.2657 30.8065 11.1184L38.3886 5.45462C38.5984 5.29814 38.8503 5.20742 39.112 5.194C39.3738 5.18058 39.6336 5.24508 39.8584 5.37928C40.0833 5.51348 40.2629 5.7113 40.3744 5.94755C40.486 6.1838 40.5244 6.44778 40.4849 6.70586C39.6732 11.9579 38.862 17.2099 38.0513 22.462L2.94874 22.4673Z" fill="#E7FE55"/>
<path d="M2.94922 25.6716H38.0544V29.6764C38.0544 29.9159 38.007 30.153 37.915 30.3743C37.823 30.5956 37.6882 30.7966 37.5182 30.966C37.3481 31.1353 37.1463 31.2697 36.9242 31.3613C36.702 31.453 36.464 31.5001 36.2235 31.5001H4.78009C4.29451 31.5001 3.82882 31.308 3.48547 30.966C3.14211 30.624 2.94922 30.1601 2.94922 29.6764V25.6716Z" fill="#E7FE55"/>
</svg>
