<svg width="78" height="78" viewBox="0 0 78 78" fill="none" xmlns="http://www.w3.org/2000/svg">
<rect width="78" height="78" rx="39" fill="url(#paint0_linear_717_561)" fill-opacity="0.05"/>
<rect x="10" y="10" width="58" height="58" rx="29" fill="url(#paint1_linear_717_561)" fill-opacity="0.1"/>
<rect x="10.5" y="10.5" width="57" height="57" rx="28.5" stroke="url(#paint2_linear_717_561)" stroke-opacity="0.2"/>
<path d="M32.2688 35.25H35.3188C35.4125 35.15 35.5125 35.0625 35.6188 34.9813L34 31.2125L32.2688 35.25Z" fill="#E7FE55"/>
<path d="M49.625 35.25C46.9431 35.25 41.0012 35.25 38.375 35.25C36.6856 35.2344 35.23 36.66 35.25 38.375V42.75V49.625C35.25 51.3481 36.6518 52.75 38.375 52.75H49.625C51.3481 52.75 52.75 51.3481 52.75 49.625V38.375C52.75 36.6519 51.3481 35.25 49.625 35.25ZM47.75 42.125H47.0825C46.9425 43.6775 46.2918 45.1188 45.2518 46.2431L46.9412 47.9325C47.34 48.3031 47.035 49.0194 46.5 49C46.34 49 46.18 48.9388 46.0581 48.8169L44.3325 47.0913C43.81 47.5313 41.7862 48.5544 41.1781 48.9213C40.8825 49.0875 40.4968 48.9825 40.3287 48.6781C40.1606 48.3769 40.2693 47.9956 40.5718 47.8288L42.9187 46.525C43.0993 46.425 43.2668 46.3094 43.4331 46.1919L41.0581 43.8169C40.4837 43.2375 41.3606 42.3569 41.9418 42.9331L44.3693 45.36C45.18 44.4688 45.6993 43.3419 45.8331 42.1244H40.25C39.9043 42.1244 39.625 41.845 39.625 41.4994C39.625 41.1538 39.9043 40.8744 40.25 40.8744H43.375V39.6244C43.3775 38.81 44.6218 38.8044 44.625 39.6244V40.8744H47.75C48.5656 40.8794 48.5693 42.1206 47.75 42.125Z" fill="#E7FE55"/>
<path d="M28.375 42.75H34V38.375C34 37.7063 34.15 37.0688 34.425 36.5H31.7312L30.825 38.6187C30.5025 39.3725 29.3544 38.8769 29.675 38.1313L33.425 29.3812C33.525 29.15 33.75 29 34 29C34.25 29 34.475 29.15 34.575 29.3812L36.7 34.3375C37.8044 33.7538 41.2931 34.0781 42.75 34V28.375C42.75 26.6519 41.3481 25.25 39.625 25.25H28.375C26.6519 25.25 25.25 26.6519 25.25 28.375V39.625C25.25 41.3481 26.6519 42.75 28.375 42.75Z" fill="#E7FE55"/>
<defs>
<linearGradient id="paint0_linear_717_561" x1="39" y1="0" x2="39" y2="78" gradientUnits="userSpaceOnUse">
<stop stop-color="#E7FE55"/>
<stop offset="1" stop-color="#E7FE55" stop-opacity="0"/>
</linearGradient>
<linearGradient id="paint1_linear_717_561" x1="39" y1="-28.4054" x2="39" y2="159.703" gradientUnits="userSpaceOnUse">
<stop stop-color="#E7FE55"/>
<stop offset="0.467671" stop-color="#E7FE55" stop-opacity="0"/>
</linearGradient>
<linearGradient id="paint2_linear_717_561" x1="39" y1="-90.7162" x2="39" y2="120.514" gradientUnits="userSpaceOnUse">
<stop stop-color="#E7FE55"/>
<stop offset="0.716291" stop-color="#E7FE55" stop-opacity="0"/>
</linearGradient>
</defs>
</svg>
