<svg width="78" height="78" viewBox="0 0 78 78" fill="none" xmlns="http://www.w3.org/2000/svg">
<rect width="78" height="78" rx="39" fill="url(#paint0_linear_717_386)" fill-opacity="0.05"/>
<rect x="10" y="10" width="58" height="58" rx="29" fill="url(#paint1_linear_717_386)" fill-opacity="0.1"/>
<rect x="10.5" y="10.5" width="57" height="57" rx="28.5" stroke="url(#paint2_linear_717_386)" stroke-opacity="0.2"/>
<path fill-rule="evenodd" clip-rule="evenodd" d="M49.3395 28.0765L49.3664 28.1034L49.8966 28.6337L49.9236 28.6606C50.3958 29.1327 50.7898 29.5268 51.0854 29.875C51.3938 30.2382 51.6498 30.6128 51.7959 31.0628C52.0203 31.7532 52.0203 32.4969 51.7959 33.1873C51.6498 33.6373 51.3938 34.0118 51.0854 34.375C50.7898 34.7233 50.3958 35.1174 49.9236 35.5895L49.8966 35.6164L49.3664 36.1467L49.3395 36.1736C48.8675 36.6458 48.4733 37.0398 48.125 37.3354C47.7618 37.6438 47.3873 37.8997 46.9373 38.0459C46.2469 38.2703 45.5031 38.2703 44.8128 38.0459C44.3628 37.8997 43.9883 37.6438 43.625 37.3354C43.2768 37.0398 42.8826 36.6457 42.4105 36.1736L42.3836 36.1467L41.8534 35.6164L41.8264 35.5895C41.3543 35.1174 40.9603 34.7233 40.6646 34.375C40.3563 34.0118 40.1003 33.6373 39.9541 33.1873C39.7298 32.4969 39.7298 31.7532 39.9541 31.0628C40.1003 30.6128 40.3563 30.2382 40.6646 29.875C40.9603 29.5268 41.3543 29.1327 41.8264 28.6606L41.8534 28.6337L42.3836 28.1034L42.4105 28.0765C42.8826 27.6043 43.2768 27.2102 43.625 26.9146C43.9883 26.6063 44.3628 26.3503 44.8128 26.2041C45.5031 25.9798 46.2469 25.9798 46.9373 26.2041C47.3873 26.3503 47.7618 26.6063 48.125 26.9146C48.4733 27.2102 48.8674 27.6043 49.3395 28.0765ZM31.712 26.8125H31.75H32.5H32.5381C33.2057 26.8125 33.7631 26.8125 34.2183 26.8497C34.6932 26.8885 35.139 26.9723 35.5606 27.1871C36.2074 27.5167 36.7333 28.0426 37.0629 28.6894C37.2776 29.111 37.3615 29.5568 37.4004 30.0316C37.4375 30.4869 37.4375 31.0442 37.4375 31.7119V31.75V32.5V32.538C37.4375 33.2057 37.4375 33.763 37.4004 34.2183C37.3615 34.6932 37.2776 35.139 37.0629 35.5606C36.7333 36.2074 36.2074 36.7333 35.5606 37.0628C35.139 37.2777 34.6932 37.3616 34.2183 37.4003C33.7631 37.4376 33.2057 37.4376 32.538 37.4374H32.5H31.75H31.712C31.0443 37.4376 30.487 37.4376 30.0317 37.4003C29.5568 37.3616 29.111 37.2777 28.6894 37.0628C28.0426 36.7333 27.5167 36.2074 27.1872 35.5606C26.9724 35.139 26.8885 34.6932 26.8497 34.2183C26.8125 33.763 26.8125 33.2057 26.8125 32.5381V32.5V31.75V31.7119C26.8125 31.0443 26.8125 30.4869 26.8497 30.0316C26.8885 29.5568 26.9724 29.111 27.1872 28.6894C27.5167 28.0426 28.0426 27.5167 28.6894 27.1871C29.111 26.9723 29.5568 26.8885 30.0317 26.8497C30.487 26.8125 31.0443 26.8125 31.712 26.8125ZM31.75 40.5624H31.712C31.0443 40.5624 30.487 40.5624 30.0317 40.5997C29.5568 40.6384 29.111 40.7223 28.6894 40.9372C28.0426 41.2667 27.5167 41.7926 27.1872 42.4394C26.9724 42.8609 26.8885 43.3068 26.8497 43.7817C26.8125 44.2369 26.8125 44.7942 26.8125 45.4619V45.4999V46.2499V46.2881C26.8125 46.9557 26.8125 47.5131 26.8497 47.9683C26.8885 48.4432 26.9724 48.8891 27.1872 49.3106C27.5167 49.9574 28.0426 50.4833 28.6894 50.8128C29.111 51.0277 29.5568 51.1116 30.0317 51.1503C30.4869 51.1876 31.0442 51.1876 31.7119 51.1874H31.75H32.5H32.538C33.2057 51.1876 33.7631 51.1876 34.2183 51.1503C34.6932 51.1116 35.139 51.0277 35.5606 50.8128C36.2074 50.4833 36.7333 49.9574 37.0629 49.3106C37.2776 48.8891 37.3615 48.4432 37.4004 47.9683C37.4375 47.5131 37.4375 46.9557 37.4375 46.2881V46.2499V45.4999V45.4619C37.4375 44.7942 37.4375 44.2369 37.4004 43.7817C37.3615 43.3068 37.2776 42.8609 37.0629 42.4394C36.7333 41.7926 36.2074 41.2667 35.5606 40.9372C35.139 40.7223 34.6932 40.6384 34.2183 40.5997C33.7631 40.5624 33.2057 40.5624 32.5381 40.5624H32.5H31.75ZM45.462 40.5624H45.5H46.25H46.288C46.9558 40.5624 47.513 40.5624 47.9684 40.5997C48.4433 40.6384 48.889 40.7223 49.3106 40.9372C49.9574 41.2667 50.4833 41.7926 50.8129 42.4394C51.0276 42.8609 51.1115 43.3068 51.1504 43.7817C51.1875 44.2369 51.1875 44.7943 51.1875 45.4619V45.4999V46.2499V46.2881C51.1875 46.9557 51.1875 47.5131 51.1504 47.9683C51.1115 48.4432 51.0276 48.8891 50.8129 49.3106C50.4833 49.9574 49.9574 50.4833 49.3106 50.8128C48.889 51.0277 48.4433 51.1116 47.9684 51.1503C47.5131 51.1876 46.9558 51.1876 46.2881 51.1874H46.25H45.5H45.462C44.7944 51.1876 44.2369 51.1876 43.7816 51.1503C43.3068 51.1116 42.861 51.0277 42.4394 50.8128C41.7926 50.4833 41.2668 49.9574 40.9371 49.3106C40.7224 48.8891 40.6385 48.4432 40.5996 47.9683C40.5625 47.5131 40.5625 46.9557 40.5625 46.2881V46.2499V45.4999V45.4619C40.5625 44.7943 40.5625 44.2369 40.5996 43.7817C40.6385 43.3068 40.7224 42.8609 40.9371 42.4394C41.2668 41.7926 41.7926 41.2667 42.4394 40.9372C42.861 40.7223 43.3068 40.6384 43.7816 40.5997C44.237 40.5624 44.7943 40.5624 45.462 40.5624Z" fill="#E7FE55"/>
<defs>
<linearGradient id="paint0_linear_717_386" x1="39" y1="0" x2="39" y2="78" gradientUnits="userSpaceOnUse">
<stop stop-color="#E7FE55"/>
<stop offset="1" stop-color="#E7FE55" stop-opacity="0"/>
</linearGradient>
<linearGradient id="paint1_linear_717_386" x1="39" y1="-28.4054" x2="39" y2="159.703" gradientUnits="userSpaceOnUse">
<stop stop-color="#E7FE55"/>
<stop offset="0.467671" stop-color="#E7FE55" stop-opacity="0"/>
</linearGradient>
<linearGradient id="paint2_linear_717_386" x1="39" y1="-90.7162" x2="39" y2="120.514" gradientUnits="userSpaceOnUse">
<stop stop-color="#E7FE55"/>
<stop offset="0.716291" stop-color="#E7FE55" stop-opacity="0"/>
</linearGradient>
</defs>
</svg>
