<svg width="78" height="78" viewBox="0 0 78 78" fill="none" xmlns="http://www.w3.org/2000/svg">
<rect width="78" height="78" rx="39" fill="url(#paint0_linear_717_448)" fill-opacity="0.05"/>
<rect x="10" y="10" width="58" height="58" rx="29" fill="url(#paint1_linear_717_448)" fill-opacity="0.1"/>
<rect x="10.5" y="10.5" width="57" height="57" rx="28.5" stroke="url(#paint2_linear_717_448)" stroke-opacity="0.2"/>
<path d="M52.0416 36.8906L46.2019 42.5831L47.581 50.6231C47.641 50.9746 47.4966 51.3299 47.2078 51.5399C47.0447 51.659 46.8506 51.719 46.6566 51.719C46.5075 51.719 46.3575 51.6834 46.2206 51.6112L39 47.8153L31.7803 51.6103C31.4653 51.7771 31.0819 51.7499 30.7931 51.539C30.5044 51.329 30.36 50.9737 30.42 50.6221L31.7991 42.5821L25.9585 36.8906C25.7035 36.6412 25.6107 36.2681 25.7213 35.9296C25.8319 35.5912 26.1253 35.3428 26.4788 35.2912L34.5497 34.1193L38.1591 26.8049C38.475 26.1646 39.525 26.1646 39.841 26.8049L43.4503 34.1193L51.5213 35.2912C51.8747 35.3428 52.1681 35.5903 52.2788 35.9296C52.3894 36.269 52.2966 36.6403 52.0416 36.8906Z" fill="#E7FE55"/>
<defs>
<linearGradient id="paint0_linear_717_448" x1="39" y1="0" x2="39" y2="78" gradientUnits="userSpaceOnUse">
<stop stop-color="#E7FE55"/>
<stop offset="1" stop-color="#E7FE55" stop-opacity="0"/>
</linearGradient>
<linearGradient id="paint1_linear_717_448" x1="39" y1="-28.4054" x2="39" y2="159.703" gradientUnits="userSpaceOnUse">
<stop stop-color="#E7FE55"/>
<stop offset="0.467671" stop-color="#E7FE55" stop-opacity="0"/>
</linearGradient>
<linearGradient id="paint2_linear_717_448" x1="39" y1="-90.7162" x2="39" y2="120.514" gradientUnits="userSpaceOnUse">
<stop stop-color="#E7FE55"/>
<stop offset="0.716291" stop-color="#E7FE55" stop-opacity="0"/>
</linearGradient>
</defs>
</svg>
