<svg width="78" height="78" viewBox="0 0 78 78" fill="none" xmlns="http://www.w3.org/2000/svg">
<rect width="78" height="78" rx="39" fill="url(#paint0_linear_717_327)" fill-opacity="0.05"/>
<rect x="10" y="10" width="58" height="58" rx="29" fill="url(#paint1_linear_717_327)" fill-opacity="0.1"/>
<rect x="10.5" y="10.5" width="57" height="57" rx="28.5" stroke="url(#paint2_linear_717_327)" stroke-opacity="0.2"/>
<g clip-path="url(#clip0_717_327)">
<path d="M53.8243 34.8984L52.251 32.8007L51.3762 38.9244C51.2961 39.4854 51.0312 40.0151 50.6303 40.4159L39.858 51.1882C38.9184 52.1279 37.6677 52.6455 36.3363 52.6455C35.9384 52.6455 35.548 52.5983 35.1707 52.5084C35.7437 53.4043 36.7467 54 37.8868 54H50.7775C52.5544 54 54.0001 52.5543 54.0001 50.7773V35.4258C54.0001 35.2356 53.9384 35.0506 53.8243 34.8984Z" fill="#E7FE55"/>
<path d="M42.1367 38.6018C42.6221 38.6018 43.0156 38.2083 43.0156 37.7229C43.0156 37.2375 42.6221 36.844 42.1367 36.844C41.6513 36.844 41.2578 37.2375 41.2578 37.7229C41.2578 38.2083 41.6513 38.6018 42.1367 38.6018Z" fill="#E7FE55"/>
<path d="M32.1929 38.6018C32.6783 38.6018 33.0718 38.2083 33.0718 37.7229C33.0718 37.2375 32.6783 36.844 32.1929 36.844C31.7075 36.844 31.314 37.2375 31.314 37.7229C31.314 38.2083 31.7075 38.6018 32.1929 38.6018Z" fill="#E7FE55"/>
<path d="M38.6152 49.9453L49.3876 39.1729C49.522 39.0384 49.6093 38.864 49.6362 38.6757L50.8792 29.975C50.9183 29.7011 50.8262 29.4248 50.6306 29.2292L48.7661 27.3647L46.2802 29.8507L46.9017 30.4722C47.245 30.8154 47.245 31.3719 46.9017 31.7152C46.7301 31.8868 46.5052 31.9726 46.2803 31.9726C46.0554 31.9726 45.8304 31.8868 45.6588 31.7152L43.1729 29.2292C42.8296 28.886 42.8296 28.3295 43.1729 27.9863C43.5161 27.6431 44.0726 27.6431 44.4158 27.9863L45.0373 28.6078L47.5232 26.1218L45.6588 24.2573C45.4632 24.0617 45.1869 23.9699 44.913 24.0087L36.2122 25.2517C36.0239 25.2786 35.8495 25.3659 35.715 25.5004L24.9427 36.2727C23.6861 37.5292 23.6861 39.5738 24.9427 40.8302L34.0577 49.9453C34.6859 50.5736 35.5112 50.8876 36.3364 50.8876C37.1617 50.8876 37.987 50.5736 38.6152 49.9453ZM42.1369 35.0861C43.5908 35.0861 44.7736 36.2689 44.7736 37.7228C44.7736 39.1767 43.5908 40.3596 42.1369 40.3596C40.683 40.3596 39.5002 39.1767 39.5002 37.7228C39.5002 36.2689 40.683 35.0861 42.1369 35.0861ZM32.1932 40.3596C30.7393 40.3596 29.5565 39.1767 29.5565 37.7228C29.5565 36.2689 30.7393 35.0861 32.1932 35.0861C33.6471 35.0861 34.8299 36.2689 34.8299 37.7228C34.8299 39.1767 33.6472 40.3596 32.1932 40.3596ZM35.0936 44.8168C35.0015 44.8168 34.9077 44.8022 34.8156 44.7715C34.3551 44.618 34.1062 44.1203 34.2597 43.6597L38.4029 31.2301C38.5564 30.7696 39.0541 30.5207 39.5146 30.6742C39.9751 30.8277 40.224 31.3254 40.0705 31.7859L35.9273 44.2156C35.8045 44.5838 35.4616 44.8168 35.0936 44.8168Z" fill="#E7FE55"/>
<path d="M50.6303 25.5005C50.9735 25.1573 50.9735 24.6008 50.6303 24.2575C50.2871 23.9143 49.7306 23.9143 49.3873 24.2575L47.5229 26.122L48.7659 27.3649L50.6303 25.5005Z" fill="#E7FE55"/>
</g>
<defs>
<linearGradient id="paint0_linear_717_327" x1="39" y1="0" x2="39" y2="78" gradientUnits="userSpaceOnUse">
<stop stop-color="#E7FE55"/>
<stop offset="1" stop-color="#E7FE55" stop-opacity="0"/>
</linearGradient>
<linearGradient id="paint1_linear_717_327" x1="39" y1="-28.4054" x2="39" y2="159.703" gradientUnits="userSpaceOnUse">
<stop stop-color="#E7FE55"/>
<stop offset="0.467671" stop-color="#E7FE55" stop-opacity="0"/>
</linearGradient>
<linearGradient id="paint2_linear_717_327" x1="39" y1="-90.7162" x2="39" y2="120.514" gradientUnits="userSpaceOnUse">
<stop stop-color="#E7FE55"/>
<stop offset="0.716291" stop-color="#E7FE55" stop-opacity="0"/>
</linearGradient>
<clipPath id="clip0_717_327">
<rect width="30" height="30" fill="white" transform="translate(24 24)"/>
</clipPath>
</defs>
</svg>
