<svg width="78" height="78" viewBox="0 0 78 78" fill="none" xmlns="http://www.w3.org/2000/svg">
<rect width="78" height="78" rx="39" fill="url(#paint0_linear_717_502)" fill-opacity="0.05"/>
<rect x="10" y="10" width="58" height="58" rx="29" fill="url(#paint1_linear_717_502)" fill-opacity="0.1"/>
<rect x="10.5" y="10.5" width="57" height="57" rx="28.5" stroke="url(#paint2_linear_717_502)" stroke-opacity="0.2"/>
<g clip-path="url(#clip0_717_502)">
<path d="M40.5625 35.2501C40.5625 34.4796 40.7672 33.7628 41.098 33.121C40.4842 32.6878 39.75 32.4376 39 32.4376C37.269 32.4376 35.7688 33.6656 35.4319 35.3575L33.8938 43.0626H44.1074L43.4102 39.5594C41.738 38.8426 40.5625 37.1818 40.5625 35.2501Z" fill="#E7FE55"/>
<path d="M37.4375 45.2501C37.4375 46.1119 38.1382 46.8126 39 46.8126C39.8618 46.8126 40.5625 46.1119 40.5625 45.2501C40.5625 45.1452 40.5421 45.0409 40.5207 44.9376H37.4793C37.4579 45.0409 37.4375 45.1452 37.4375 45.2501Z" fill="#E7FE55"/>
<path d="M45.25 32.4376C43.6997 32.4376 42.4375 33.6992 42.4375 35.2501C42.4375 36.801 43.6997 38.0626 45.25 38.0626C46.8003 38.0626 48.0625 36.801 48.0625 35.2501C48.0625 33.6992 46.8003 32.4376 45.25 32.4376ZM46.1875 36.5001C46.1875 37.0177 45.7676 37.4376 45.25 37.4376C44.7324 37.4376 44.3125 37.0177 44.3125 36.5001V34.0001C44.3125 33.4825 44.7324 33.0626 45.25 33.0626C45.7676 33.0626 46.1875 33.4825 46.1875 34.0001V36.5001Z" fill="#E7FE55"/>
<path d="M52.8585 31.5972C52.1298 28.4056 49.5956 25.8721 46.4034 25.1421C41.5597 24.0361 36.4401 24.0361 31.5963 25.1421C28.4042 25.8721 25.87 28.4056 25.1412 31.5972C24.0353 36.4403 24.0353 41.5599 25.1412 46.4031C25.8712 49.5952 28.4042 52.1288 31.5963 52.8575C36.4481 53.9652 41.5517 53.9652 46.4035 52.8575C49.5956 52.1288 52.1285 49.5952 52.8585 46.4031C53.9645 41.5599 53.9645 36.4403 52.8585 31.5972ZM45.3938 39.9231L46.0188 43.0626H46.4999C47.0175 43.0626 47.4374 43.4826 47.4374 44.0001C47.4374 44.5177 47.0175 44.9376 46.4999 44.9376H42.396C42.4057 45.0427 42.4374 45.144 42.4374 45.2501C42.4374 47.1459 40.8956 48.6876 38.9999 48.6876C37.1041 48.6876 35.5624 47.1459 35.5624 45.2501C35.5624 45.144 35.594 45.0427 35.6038 44.9376H31.4999C30.9823 44.9376 30.5624 44.5177 30.5624 44.0001C30.5624 43.4826 30.9823 43.0626 31.4999 43.0626H31.9812L33.5934 34.9913C34.0416 32.7372 35.8509 31.0279 38.0624 30.6453V30.2501C38.0624 29.7326 38.4823 29.3126 38.9999 29.3126C39.5175 29.3126 39.9374 29.7326 39.9374 30.2501V30.6443C40.7784 30.7914 41.5746 31.1482 42.2719 31.6607C43.0844 30.9854 44.1136 30.5626 45.2499 30.5626C47.8341 30.5626 49.9374 32.6653 49.9374 35.2501C49.9374 37.7857 47.9102 39.8449 45.3938 39.9231Z" fill="#E7FE55"/>
</g>
<defs>
<linearGradient id="paint0_linear_717_502" x1="39" y1="0" x2="39" y2="78" gradientUnits="userSpaceOnUse">
<stop stop-color="#E7FE55"/>
<stop offset="1" stop-color="#E7FE55" stop-opacity="0"/>
</linearGradient>
<linearGradient id="paint1_linear_717_502" x1="39" y1="-28.4054" x2="39" y2="159.703" gradientUnits="userSpaceOnUse">
<stop stop-color="#E7FE55"/>
<stop offset="0.467671" stop-color="#E7FE55" stop-opacity="0"/>
</linearGradient>
<linearGradient id="paint2_linear_717_502" x1="39" y1="-90.7162" x2="39" y2="120.514" gradientUnits="userSpaceOnUse">
<stop stop-color="#E7FE55"/>
<stop offset="0.716291" stop-color="#E7FE55" stop-opacity="0"/>
</linearGradient>
<clipPath id="clip0_717_502">
<rect width="30" height="30" fill="white" transform="translate(24 24)"/>
</clipPath>
</defs>
</svg>
