<svg width="78" height="78" viewBox="0 0 78 78" fill="none" xmlns="http://www.w3.org/2000/svg">
<rect width="78" height="78" rx="39" fill="url(#paint0_linear_717_475)" fill-opacity="0.05"/>
<rect x="10" y="10" width="58" height="58" rx="29" fill="url(#paint1_linear_717_475)" fill-opacity="0.1"/>
<rect x="10.5" y="10.5" width="57" height="57" rx="28.5" stroke="url(#paint2_linear_717_475)" stroke-opacity="0.2"/>
<path d="M47.3559 35.6718L45.5063 36.419C45.2681 36.5156 45.0178 36.5643 44.7628 36.5643C44.2162 36.5643 43.6875 36.3337 43.3134 35.9315C42.9412 35.5321 42.7491 34.9893 42.7875 34.4428L42.9272 32.4534L41.6437 30.9271C41.3587 30.5878 41.2162 30.1725 41.1966 29.7468H29.0344C26.8313 29.7468 25.0312 31.5468 25.0312 33.7593V44.9156C25.0312 47.1281 26.8313 48.9187 29.0344 48.9187H32.0813L32.0156 50.7843C31.9969 51.5437 32.4 52.2375 33.075 52.5937C33.3656 52.7437 33.675 52.8187 33.9937 52.8187C34.4062 52.8187 34.8187 52.6781 35.1656 52.4156L39.8156 48.9187H45.1781C47.3813 48.9187 49.1812 47.1281 49.1812 44.9156V36.4096L47.3559 35.6718ZM37.5722 42.3093H32.6512C32.1853 42.3093 31.8075 41.9315 31.8075 41.4656C31.8075 40.9996 32.1853 40.6218 32.6512 40.6218H37.5722C38.0381 40.6218 38.4159 40.9996 38.4159 41.4656C38.4159 41.9315 38.0381 42.3093 37.5722 42.3093ZM41.9344 38.0475H32.6531C32.1872 38.0475 31.8094 37.6696 31.8094 37.2037C31.8094 36.7378 32.1872 36.36 32.6531 36.36H41.9344C42.4003 36.36 42.7781 36.7378 42.7781 37.2037C42.7781 37.6696 42.4003 38.0475 41.9344 38.0475Z" fill="#E7FE55"/>
<path d="M47.8435 26.3006L49.202 28.4747L51.6892 29.0944C52.1017 29.1975 52.2638 29.6962 51.991 30.0225L50.3429 31.9856L50.522 34.5422C50.552 34.9659 50.1273 35.2753 49.7326 35.1159L47.356 34.155L44.9795 35.1159C44.5857 35.2753 44.1601 34.9669 44.1901 34.5422L44.3692 31.9856L42.721 30.0225C42.4473 29.6972 42.6104 29.1975 43.0229 29.0944L45.5101 28.4747L46.8685 26.3006C47.0926 25.9397 47.6185 25.9397 47.8435 26.3006Z" fill="#E7FE55"/>
<defs>
<linearGradient id="paint0_linear_717_475" x1="39" y1="0" x2="39" y2="78" gradientUnits="userSpaceOnUse">
<stop stop-color="#E7FE55"/>
<stop offset="1" stop-color="#E7FE55" stop-opacity="0"/>
</linearGradient>
<linearGradient id="paint1_linear_717_475" x1="39" y1="-28.4054" x2="39" y2="159.703" gradientUnits="userSpaceOnUse">
<stop stop-color="#E7FE55"/>
<stop offset="0.467671" stop-color="#E7FE55" stop-opacity="0"/>
</linearGradient>
<linearGradient id="paint2_linear_717_475" x1="39" y1="-90.7162" x2="39" y2="120.514" gradientUnits="userSpaceOnUse">
<stop stop-color="#E7FE55"/>
<stop offset="0.716291" stop-color="#E7FE55" stop-opacity="0"/>
</linearGradient>
</defs>
</svg>
