<svg width="51" height="50" viewBox="0 0 51 50" fill="none" xmlns="http://www.w3.org/2000/svg">
<path fill-rule="evenodd" clip-rule="evenodd" d="M39.9189 33.3333C36.4709 33.3333 33.6689 36.1354 33.6689 39.5833C33.6689 43.0312 36.4709 45.8333 39.9189 45.8333C43.3668 45.8333 46.1689 43.0312 46.1689 39.5833C46.1689 36.1354 43.3668 33.3333 39.9189 33.3333ZM37.096 40.3229L39.1793 42.4062C39.4189 42.6458 39.7522 42.75 40.0855 42.6979C40.4189 42.6458 40.7001 42.4375 40.846 42.1354L42.9293 37.9687C43.1897 37.4583 42.9814 36.8229 42.4605 36.5729C41.9501 36.3125 41.3147 36.5208 41.0647 37.0416L39.6272 39.9166L38.5647 38.8541C38.1585 38.4479 37.5022 38.4479 37.096 38.8541C36.6897 39.2604 36.6897 39.9166 37.096 40.3333V40.3229ZM15.9605 17.7083H10.7522C10.1793 17.7083 9.71053 18.177 9.71053 18.75C9.71053 19.3229 10.1793 19.7916 10.7522 19.7916H14.6376C14.2834 20.4583 13.9814 21.1562 13.7209 21.875H8.66886C8.09595 21.875 7.6272 22.3437 7.6272 22.9166C7.6272 23.4895 8.09595 23.9583 8.66886 23.9583H13.148C13.0126 24.6354 12.9189 25.3333 12.8668 26.0416H5.54386C4.97095 26.0416 4.5022 26.5104 4.5022 27.0833C4.5022 27.6562 4.97095 28.125 5.54386 28.125H12.8668C12.9189 28.8333 13.0126 29.5312 13.148 30.2083H8.66886C8.09595 30.2083 7.6272 30.677 7.6272 31.25C7.6272 31.8229 8.09595 32.2916 8.66886 32.2916H13.7209C13.9814 33.0104 14.2834 33.7083 14.6376 34.375H10.7522C10.1793 34.375 9.71053 34.8437 9.71053 35.4166C9.71053 35.9895 10.1793 36.4583 10.7522 36.4583H15.9605C18.8147 40.25 23.3459 42.7083 28.4605 42.7083C29.6897 42.7083 30.8876 42.5625 32.0334 42.2916C31.7418 41.4375 31.5855 40.5312 31.5855 39.5833C31.5855 39.0625 31.6376 38.5625 31.7209 38.0729C30.6897 38.3854 29.5959 38.5416 28.4605 38.5416C22.1376 38.5416 17.0022 33.4062 17.0022 27.0833C17.0022 20.7604 22.1376 15.625 28.4605 15.625C34.7834 15.625 39.9189 20.7604 39.9189 27.0833C39.9189 28.5625 39.6376 29.9895 39.1168 31.2916C39.3772 31.2708 39.648 31.25 39.9189 31.25C41.1272 31.25 42.273 31.5104 43.3043 31.9687C43.8147 30.427 44.0855 28.7916 44.0855 27.0833C44.0855 19.5312 38.7105 13.2187 31.5855 11.7708V10.4166H32.6272C34.3564 10.4166 35.7522 9.02079 35.7522 7.29163C35.7522 5.56246 34.3564 4.16663 32.6272 4.16663H24.2939C22.5647 4.16663 21.1689 5.56246 21.1689 7.29163C21.1689 9.02079 22.5647 10.4166 24.2939 10.4166H25.3355V11.7708C21.523 12.5416 18.2209 14.7083 15.9605 17.7083ZM32.6689 35.4791C33.5335 33.9687 34.8459 32.75 36.4397 32.0104C36.4501 31.9895 36.471 31.9583 36.4814 31.9375C37.3355 30.5208 37.8355 28.8645 37.8355 27.0833C37.8355 21.9062 33.6376 17.7083 28.4605 17.7083C23.2834 17.7083 19.0855 21.9062 19.0855 27.0833C19.0855 32.2604 23.2834 36.4583 28.4605 36.4583C29.9189 36.4583 31.2939 36.125 32.523 35.5312C32.5647 35.5104 32.6168 35.4895 32.6689 35.4791ZM5.54386 30.2083C6.11678 30.2083 6.58553 30.677 6.58553 31.25C6.58553 31.8229 6.11678 32.2916 5.54386 32.2916C4.97095 32.2916 4.5022 31.8229 4.5022 31.25C4.5022 30.677 4.97095 30.2083 5.54386 30.2083ZM27.4189 19.7916V27.0833C27.4189 27.3645 27.5334 27.625 27.7209 27.8229L30.846 30.9479C31.2522 31.3541 31.9084 31.3541 32.3251 30.9479C32.7314 30.5416 32.7314 29.8854 32.3251 29.4687L29.5022 26.6458V19.7812C29.5022 19.2083 29.0334 18.7395 28.4605 18.7395C27.8876 18.7395 27.4189 19.2083 27.4189 19.7812V19.7916ZM5.54386 21.875C6.11678 21.875 6.58553 22.3437 6.58553 22.9166C6.58553 23.4895 6.11678 23.9583 5.54386 23.9583C4.97095 23.9583 4.5022 23.4895 4.5022 22.9166C4.5022 22.3437 4.97095 21.875 5.54386 21.875Z" fill="white"/>
</svg>
