<svg width="50" height="50" viewBox="0 0 50 50" fill="none" xmlns="http://www.w3.org/2000/svg">
<path fill-rule="evenodd" clip-rule="evenodd" d="M25.5689 6.73951C22.0156 6.62118 18.4256 7.59062 15.3261 9.65951C11.845 11.9856 9.41225 15.4206 8.29169 19.2606C7.98225 19.2228 7.61169 19.2395 7.17169 19.364C5.52891 19.8301 4.29336 21.1762 3.7378 22.3617C3.01725 23.9067 2.71336 25.9501 3.03391 28.0595C3.35225 30.1623 4.24058 31.8956 5.35169 32.9717C6.46614 34.0484 7.72447 34.3984 8.97447 34.1356C10.8356 33.7384 11.7584 33.4412 11.4978 31.7073L10.2361 23.3023C10.4906 18.7534 12.8456 14.4712 16.7845 11.8378C22.0567 8.31618 28.9689 8.54173 33.9978 12.4023C37.4961 15.0845 39.5272 19.1034 39.7617 23.3223L38.8795 29.2017C36.9117 34.5867 32.0334 38.3167 26.3884 38.8462H22.6295C21.6595 38.8462 20.8784 39.6273 20.8784 40.5962V41.5195C20.8784 42.489 21.6595 43.2701 22.6295 43.2701H27.3689C28.3384 43.2701 29.1161 42.489 29.1161 41.5195V41.0367C33.3728 39.9978 37.0884 37.3817 39.5078 33.7334L41.0261 34.1362C42.2617 34.4567 43.535 34.0484 44.6489 32.9723C45.76 31.8956 46.6478 30.1628 46.9667 28.0601C47.2884 25.9506 46.9756 23.9106 46.2634 22.3623C45.5484 20.814 44.4834 19.8306 43.2539 19.4778C42.7389 19.3295 42.18 19.2751 41.7006 19.2606C40.6873 15.7884 38.6011 12.6306 35.5945 10.3251C32.6384 8.05673 29.1222 6.85618 25.5689 6.73951Z" fill="white"/>
<path fill-rule="evenodd" clip-rule="evenodd" d="M31.1163 21.8607C32.369 21.8607 33.3846 22.8762 33.3874 24.1323C33.3846 25.3851 32.369 26.4034 31.1163 26.4034C29.8601 26.4034 28.8418 25.3851 28.8418 24.1323C28.8418 22.8768 29.8607 21.8607 31.1163 21.8607ZM24.9996 21.8607C26.2551 21.8607 27.2707 22.8762 27.2707 24.1323C27.2707 25.3851 26.2551 26.4034 24.9996 26.4034C23.7429 26.4034 22.7274 25.3851 22.7274 24.1323C22.7274 22.8768 23.7429 21.8607 24.9996 21.8607ZM18.8851 21.8607C20.1379 21.8607 21.1563 22.8762 21.1563 24.1323C21.1563 25.3851 20.1379 26.4034 18.8851 26.4034C17.6296 26.4034 16.6135 25.3851 16.6135 24.1323C16.6135 22.8768 17.6296 21.8607 18.8851 21.8607ZM24.9996 12.104C18.3385 12.104 12.9707 17.2951 12.9707 24.1323C12.9707 27.4162 14.2124 30.3184 16.2351 32.4479L15.5174 35.6657C15.2807 36.7246 16.0151 37.4368 16.9668 36.9068L20.109 35.154C21.6024 35.8023 23.254 36.1607 24.9996 36.1607C31.6629 36.1607 37.0274 30.9729 37.0274 24.1323C37.0274 17.2951 31.6629 12.104 24.9996 12.104Z" fill="white"/>
</svg>
