<svg width="50" height="50" viewBox="0 0 50 50" fill="none" xmlns="http://www.w3.org/2000/svg">
<path fill-rule="evenodd" clip-rule="evenodd" d="M39.0649 7.8125V42.1875C39.0649 44.7766 36.9665 46.875 34.3774 46.875H15.6274C13.0384 46.875 10.9399 44.7766 10.9399 42.1875V7.8125C10.9399 5.22344 13.0384 3.125 15.6274 3.125H34.3774C36.9665 3.125 39.0649 5.22344 39.0649 7.8125ZM21.0962 10.9375H28.9087C29.7712 10.9375 30.4712 10.2375 30.4712 9.375C30.4712 8.5125 29.7712 7.8125 28.9087 7.8125H21.0962C20.2337 7.8125 19.5337 8.5125 19.5337 9.375C19.5337 10.2375 20.2337 10.9375 21.0962 10.9375ZM20.5853 21.1437L20.3571 20.0063C20.1884 19.1609 19.3649 18.6109 18.5196 18.7797C17.6743 18.95 17.1243 19.7734 17.2931 20.6187C17.2931 20.6187 17.7743 23.0219 17.7774 23.0406L18.7712 28.0063C19.0634 29.4672 20.3462 30.5187 21.8353 30.5187H28.6478C30.1384 30.5187 31.4212 29.4672 31.7134 28.0063L32.7118 23.0125C32.804 22.5531 32.6837 22.0766 32.3884 21.7156C32.0915 21.3531 31.6478 21.1437 31.179 21.1437H20.5853ZM22.1165 32.0812C21.254 32.0812 20.554 32.7812 20.554 33.6437C20.554 34.5062 21.254 35.2062 22.1165 35.2062C22.979 35.2062 23.679 34.5062 23.679 33.6437C23.679 32.7812 22.979 32.0812 22.1165 32.0812ZM28.3665 32.0812C27.504 32.0812 26.804 32.7812 26.804 33.6437C26.804 34.5062 27.504 35.2062 28.3665 35.2062C29.229 35.2062 29.929 34.5062 29.929 33.6437C29.929 32.7812 29.229 32.0812 28.3665 32.0812Z" fill="white"/>
</svg>
