<svg width="51" height="50" viewBox="0 0 51 50" fill="none" xmlns="http://www.w3.org/2000/svg">
<path fill-rule="evenodd" clip-rule="evenodd" d="M3.7959 16.5303H47.5459V13.3188C47.5459 12.0933 47.0484 10.9168 46.1574 10.0498C45.2819 9.19877 44.0964 8.71777 42.8584 8.71777H8.4834C7.2454 8.71777 6.0599 9.19877 5.1844 10.0498C4.2934 10.9168 3.7959 12.0933 3.7959 13.3188V16.5303Z" fill="white"/>
<path fill-rule="evenodd" clip-rule="evenodd" d="M15.8459 39.3038C15.0584 37.8113 14.6239 36.1028 14.6239 34.3313V27.9048C14.6239 26.8533 15.0184 25.8503 15.6969 25.1068C15.8074 24.9858 16.4164 24.5183 17.4379 24.0593C19.6499 23.0648 24.7974 20.9968 24.7974 20.9968C25.3614 20.7703 25.9919 20.7718 26.5549 21.0013C27.1179 21.2308 31.6324 23.0693 33.8164 24.0638C34.8234 24.5223 35.4249 24.9858 35.5354 25.1068C36.2139 25.8503 36.6084 26.8533 36.6084 27.9048V34.2988C36.6084 36.0838 36.1674 37.8038 35.3689 39.3038H42.8584C44.0964 39.3038 45.2819 38.8228 46.1574 37.9718C47.0484 37.1053 47.5459 35.9283 47.5459 34.7028V19.6553H3.7959V34.7028C3.7959 35.9283 4.2934 37.1053 5.1844 37.9718C6.0599 38.8228 7.2454 39.3038 8.4834 39.3038H15.8459Z" fill="white"/>
<path fill-rule="evenodd" clip-rule="evenodd" d="M25.7043 22.5513L25.6703 22.5508C25.4863 22.5503 25.3023 22.5853 25.1288 22.6548C25.1288 22.6548 20.3938 24.5568 18.3593 25.4713C17.5628 25.8293 17.0748 26.1728 16.9888 26.2668C16.4803 26.8243 16.1863 27.5768 16.1863 28.3648V34.2993C16.1863 37.0648 17.4213 39.6528 19.4748 41.2608C21.0028 42.4573 22.8023 43.8663 23.8323 44.6733C24.3478 45.0768 24.9523 45.2803 25.5568 45.2823H25.5853C26.1803 45.2778 26.7748 45.0788 27.2848 44.6853C28.3288 43.8788 30.1603 42.4643 31.7148 41.2638C33.7928 39.6593 35.0458 37.0553 35.0458 34.2693V28.3648C35.0458 27.5768 34.7518 26.8243 34.2433 26.2668C34.1573 26.1728 33.6753 25.8323 32.8898 25.4743C30.8813 24.5598 26.2108 22.6573 26.2108 22.6573C26.0483 22.5913 25.8768 22.5558 25.7043 22.5513ZM21.4223 35.4058L24.5018 38.0318C24.8323 38.3138 25.2658 38.4453 25.6973 38.3948C26.1288 38.3443 26.5198 38.1163 26.7763 37.7658L30.5303 32.6403C31.0398 31.9443 30.8883 30.9658 30.1928 30.4563C29.4968 29.9468 28.5183 30.0983 28.0088 30.7938L25.2493 34.5623L23.4498 33.0283C22.7938 32.4683 21.8068 32.5468 21.2473 33.2033C20.6878 33.8593 20.7663 34.8463 21.4223 35.4058Z" fill="white"/>
</svg>
