<svg width="40" height="41" viewBox="0 0 40 41" fill="none" xmlns="http://www.w3.org/2000/svg">
<path fill-rule="evenodd" clip-rule="evenodd" d="M11.7393 0.629247C8.48355 0.776146 5.66163 1.57214 3.38299 3.84115C1.09639 6.12208 0.310283 8.95517 0.163017 12.1771C0.0714728 14.188 -0.463828 29.3803 1.08843 33.3645C2.13521 36.0523 4.19688 38.119 6.90936 39.1691C8.17505 39.6615 9.61988 39.9947 11.7393 40.092C29.4609 40.894 36.0302 40.4574 38.8004 33.3645C39.2919 32.1019 39.6302 30.6584 39.7238 28.5442C40.5337 10.7772 39.5924 6.92606 36.5038 3.84115C34.0541 1.39744 31.1724 -0.26605 11.7393 0.629247ZM11.9025 36.5188C9.96214 36.4314 8.9094 36.1081 8.2069 35.8362C6.43971 35.1493 5.11234 33.8274 4.42974 32.0705C3.24764 29.0432 3.6397 14.6648 3.74517 12.3382C3.84865 10.0592 4.31035 7.97644 5.91833 6.36848C7.9084 4.38333 10.4796 3.41043 27.9863 4.20052C30.2709 4.30374 32.3585 4.76449 33.9705 6.36848C35.9605 8.35362 36.9476 10.9446 36.1436 28.384C36.0561 30.3195 35.7317 31.3698 35.459 32.0705C33.658 36.686 29.5146 37.3267 11.9025 36.5188ZM28.1793 9.763C28.1793 11.0772 29.248 12.1458 30.5674 12.1458C31.8869 12.1458 32.9575 11.0772 32.9575 9.763C32.9575 8.44885 31.8869 7.38118 30.5674 7.38118C29.248 7.38118 28.1793 8.44885 28.1793 9.763ZM9.72534 20.3596C9.72534 25.9895 14.3005 30.5539 19.9444 30.5539C25.5883 30.5539 30.1635 25.9895 30.1635 20.3596C30.1635 14.7298 25.5883 10.1683 19.9444 10.1683C14.3005 10.1683 9.72534 14.7298 9.72534 20.3596ZM13.3115 20.3596C13.3115 16.707 16.2807 13.7435 19.9444 13.7435C23.6081 13.7435 26.5773 16.707 26.5773 20.3596C26.5773 24.0143 23.6081 26.9788 19.9444 26.9788C16.2807 26.9788 13.3115 24.0143 13.3115 20.3596Z" fill="#565656"/>
</svg>
