<svg width="40" height="32" viewBox="0 0 40 32" fill="none" xmlns="http://www.w3.org/2000/svg">
<path d="M38.1818 0.929199H1.81818C1.33597 0.929199 0.873508 1.12076 0.532533 1.46173C0.191558 1.80271 0 2.26517 0 2.74738V30.0201C0 30.5023 0.191558 30.9648 0.532533 31.3058C0.873508 31.6467 1.33597 31.8383 1.81818 31.8383H38.1818C38.664 31.8383 39.1265 31.6467 39.4675 31.3058C39.8084 30.9648 40 30.5023 40 30.0201V2.74738C40 2.26517 39.8084 1.80271 39.4675 1.46173C39.1265 1.12076 38.664 0.929199 38.1818 0.929199ZM36.3636 28.2019H3.63636V4.56556H36.3636V28.2019Z" fill="#565656"/>
<path d="M6.37075 11.5987L19.098 18.8715C19.3727 19.0284 19.6836 19.111 20 19.111C20.3164 19.111 20.6273 19.0284 20.902 18.8715L33.6293 11.5987C34.0425 11.3567 34.3436 10.9615 34.4671 10.4989C34.5906 10.0362 34.5267 9.5435 34.2891 9.12774C34.0515 8.71197 33.6595 8.40671 33.1982 8.27825C32.7369 8.14979 32.2436 8.2085 31.8253 8.44163L20 15.1995L8.17475 8.44163C7.96731 8.32015 7.73783 8.241 7.4996 8.20879C7.26137 8.17657 7.01912 8.19191 6.78686 8.25393C6.5546 8.31595 6.33695 8.42341 6.14649 8.5701C5.95603 8.71679 5.79656 8.89979 5.67729 9.10851C5.55802 9.31724 5.48133 9.54754 5.45165 9.7861C5.42197 10.0247 5.4399 10.2667 5.50439 10.4983C5.56888 10.7299 5.67866 10.9464 5.82737 11.1353C5.97607 11.3242 6.16076 11.4817 6.37075 11.5987Z" fill="#565656"/>
</svg>
