<svg width="78" height="78" viewBox="0 0 78 78" fill="none" xmlns="http://www.w3.org/2000/svg">
<rect width="78" height="78" rx="39" fill="url(#paint0_linear_791_107)" fill-opacity="0.05"/>
<rect x="10" y="10" width="58" height="58" rx="29" fill="url(#paint1_linear_791_107)" fill-opacity="0.1"/>
<rect x="10.5" y="10.5" width="57" height="57" rx="28.5" stroke="url(#paint2_linear_791_107)" stroke-opacity="0.2"/>
<path d="M34.8609 31.4859C34.9594 30.5297 35.7609 29.8078 36.7266 29.8078C36.7922 29.8078 36.8578 29.8078 36.9234 29.8172L42.2812 30.3797V26.8125C42.2812 26.2969 41.8594 25.875 41.3438 25.875H28.6875C28.1719 25.875 27.75 26.2969 27.75 26.8125V45.0938C27.75 45.6094 28.1719 46.0312 28.6875 46.0312H33.3328L34.8609 31.4859Z" fill="#E7FE55"/>
<path d="M49.4209 32.0934L36.828 30.7645C36.3128 30.7101 35.8511 31.0837 35.7967 31.5988L33.8772 49.7887C33.8228 50.3039 34.1964 50.7656 34.7115 50.8199L47.3045 52.1488C47.8197 52.2032 48.2814 51.8296 48.3358 51.3145L50.2553 33.1246C50.3097 32.6094 49.9361 32.1477 49.4209 32.0934Z" fill="#E7FE55"/>
<defs>
<linearGradient id="paint0_linear_791_107" x1="39" y1="0" x2="39" y2="78" gradientUnits="userSpaceOnUse">
<stop stop-color="#E7FE55"/>
<stop offset="1" stop-color="#E7FE55" stop-opacity="0"/>
</linearGradient>
<linearGradient id="paint1_linear_791_107" x1="39" y1="-28.4054" x2="39" y2="159.703" gradientUnits="userSpaceOnUse">
<stop stop-color="#E7FE55"/>
<stop offset="0.467671" stop-color="#E7FE55" stop-opacity="0"/>
</linearGradient>
<linearGradient id="paint2_linear_791_107" x1="39" y1="-90.7162" x2="39" y2="120.514" gradientUnits="userSpaceOnUse">
<stop stop-color="#E7FE55"/>
<stop offset="0.716291" stop-color="#E7FE55" stop-opacity="0"/>
</linearGradient>
</defs>
</svg>
