<svg width="78" height="78" viewBox="0 0 78 78" fill="none" xmlns="http://www.w3.org/2000/svg">
<rect width="78" height="78" rx="39" fill="url(#paint0_linear_791_113)" fill-opacity="0.05"/>
<rect x="10" y="10" width="58" height="58" rx="29" fill="url(#paint1_linear_791_113)" fill-opacity="0.1"/>
<rect x="10.5" y="10.5" width="57" height="57" rx="28.5" stroke="url(#paint2_linear_791_113)" stroke-opacity="0.2"/>
<g clip-path="url(#clip0_791_113)">
<path d="M53.8242 34.8986L52.2508 32.8008L51.376 38.9245C51.2959 39.4855 51.031 40.0152 50.6302 40.416L39.8579 51.1883C38.9183 52.128 37.6676 52.6456 36.3362 52.6456C35.9383 52.6456 35.5479 52.5984 35.1705 52.5085C35.7436 53.4044 36.7465 54.0001 37.8867 54.0001H50.7773C52.5543 54.0001 54 52.5544 54 50.7775V35.4259C54 35.2358 53.9383 35.0507 53.8242 34.8986Z" fill="#E7FE55"/>
<path d="M42.1367 38.6018C42.6221 38.6018 43.0156 38.2083 43.0156 37.7229C43.0156 37.2375 42.6221 36.844 42.1367 36.844C41.6513 36.844 41.2578 37.2375 41.2578 37.7229C41.2578 38.2083 41.6513 38.6018 42.1367 38.6018Z" fill="#E7FE55"/>
<path d="M32.193 38.6018C32.6784 38.6018 33.0719 38.2083 33.0719 37.7229C33.0719 37.2375 32.6784 36.844 32.193 36.844C31.7076 36.844 31.3141 37.2375 31.3141 37.7229C31.3141 38.2083 31.7076 38.6018 32.193 38.6018Z" fill="#E7FE55"/>
<path d="M38.6152 49.9453L49.3876 39.1729C49.522 39.0384 49.6093 38.864 49.6362 38.6757L50.8792 29.975C50.9183 29.7011 50.8262 29.4248 50.6306 29.2292L48.7661 27.3647L46.2802 29.8507L46.9017 30.4722C47.245 30.8154 47.245 31.3719 46.9017 31.7152C46.7301 31.8868 46.5052 31.9726 46.2803 31.9726C46.0554 31.9726 45.8304 31.8868 45.6588 31.7152L43.1729 29.2292C42.8296 28.886 42.8296 28.3295 43.1729 27.9863C43.5161 27.6431 44.0726 27.6431 44.4158 27.9863L45.0373 28.6078L47.5232 26.1218L45.6588 24.2573C45.4632 24.0617 45.1869 23.9699 44.913 24.0087L36.2122 25.2517C36.0239 25.2786 35.8495 25.3659 35.715 25.5004L24.9427 36.2727C23.6861 37.5292 23.6861 39.5738 24.9427 40.8302L34.0577 49.9453C34.6859 50.5736 35.5112 50.8876 36.3364 50.8876C37.1617 50.8876 37.987 50.5736 38.6152 49.9453ZM42.1369 35.0861C43.5908 35.0861 44.7736 36.2689 44.7736 37.7228C44.7736 39.1767 43.5908 40.3596 42.1369 40.3596C40.683 40.3596 39.5002 39.1767 39.5002 37.7228C39.5002 36.2689 40.683 35.0861 42.1369 35.0861ZM32.1932 40.3596C30.7393 40.3596 29.5565 39.1767 29.5565 37.7228C29.5565 36.2689 30.7393 35.0861 32.1932 35.0861C33.6471 35.0861 34.8299 36.2689 34.8299 37.7228C34.8299 39.1767 33.6472 40.3596 32.1932 40.3596ZM35.0936 44.8168C35.0015 44.8168 34.9077 44.8022 34.8156 44.7715C34.3551 44.618 34.1062 44.1203 34.2597 43.6597L38.4029 31.2301C38.5564 30.7696 39.0541 30.5207 39.5146 30.6742C39.9751 30.8277 40.224 31.3254 40.0705 31.7859L35.9273 44.2156C35.8045 44.5838 35.4616 44.8168 35.0936 44.8168Z" fill="#E7FE55"/>
<path d="M50.6302 25.5003C50.9734 25.1572 50.9734 24.6006 50.6302 24.2574C50.287 23.9142 49.7305 23.9142 49.3872 24.2574L47.5228 26.1218L48.7658 27.3648L50.6302 25.5003Z" fill="#E7FE55"/>
</g>
<defs>
<linearGradient id="paint0_linear_791_113" x1="39" y1="0" x2="39" y2="78" gradientUnits="userSpaceOnUse">
<stop stop-color="#E7FE55"/>
<stop offset="1" stop-color="#E7FE55" stop-opacity="0"/>
</linearGradient>
<linearGradient id="paint1_linear_791_113" x1="39" y1="-28.4054" x2="39" y2="159.703" gradientUnits="userSpaceOnUse">
<stop stop-color="#E7FE55"/>
<stop offset="0.467671" stop-color="#E7FE55" stop-opacity="0"/>
</linearGradient>
<linearGradient id="paint2_linear_791_113" x1="39" y1="-90.7162" x2="39" y2="120.514" gradientUnits="userSpaceOnUse">
<stop stop-color="#E7FE55"/>
<stop offset="0.716291" stop-color="#E7FE55" stop-opacity="0"/>
</linearGradient>
<clipPath id="clip0_791_113">
<rect width="30" height="30" fill="white" transform="translate(24 24)"/>
</clipPath>
</defs>
</svg>
