<svg width="78" height="78" viewBox="0 0 78 78" fill="none" xmlns="http://www.w3.org/2000/svg">
<rect width="78" height="78" rx="39" fill="url(#paint0_linear_791_171)" fill-opacity="0.05"/>
<rect x="10" y="10" width="58" height="58" rx="29" fill="url(#paint1_linear_791_171)" fill-opacity="0.1"/>
<rect x="10.5" y="10.5" width="57" height="57" rx="28.5" stroke="url(#paint2_linear_791_171)" stroke-opacity="0.2"/>
<g clip-path="url(#clip0_791_171)">
<path d="M52.0052 39.3887C51.8844 39.1417 51.8844 38.8585 52.0052 38.6115L53.1241 36.3226C53.747 35.0481 53.2534 33.5291 52.0003 32.8642L49.7498 31.6701C49.507 31.5413 49.3405 31.3121 49.293 31.0415L48.8528 28.532C48.6077 27.1347 47.3153 26.1958 45.911 26.3945L43.3883 26.7514C43.1161 26.7898 42.8468 26.7023 42.6493 26.5112L40.8182 24.7398C39.7986 23.7534 38.2014 23.7534 37.1818 24.7398L35.3507 26.5114C35.1531 26.7025 34.8839 26.7899 34.6116 26.7515L32.089 26.3947C30.6842 26.1959 29.3923 27.1349 29.1472 28.5321L28.707 31.0415C28.6595 31.3122 28.493 31.5414 28.2503 31.6702L25.9997 32.8644C24.7466 33.5292 24.253 35.0483 24.876 36.3228L25.9948 38.6117C26.1155 38.8586 26.1155 39.1419 25.9948 39.3888L24.8759 41.6777C24.253 42.9521 24.7466 44.4712 25.9996 45.136L28.2502 46.3302C28.493 46.459 28.6595 46.6882 28.707 46.9588L29.1472 49.4683C29.3703 50.7403 30.4609 51.6323 31.7144 51.6322C31.8379 51.6322 31.9632 51.6235 32.0891 51.6057L34.6117 51.2489C34.8837 51.2102 35.1532 51.298 35.3507 51.489L37.1818 53.2604C37.6917 53.7537 38.3457 54.0002 39 54.0002C39.6541 54.0001 40.3085 53.7535 40.8181 53.2604L42.6493 51.489C42.8469 51.298 43.1162 51.2107 43.3883 51.2489L45.911 51.6057C47.3159 51.8044 48.6077 50.8655 48.8528 49.4683L49.293 46.9589C49.3406 46.6882 49.507 46.459 49.7498 46.3302L52.0003 45.136C53.2534 44.4712 53.747 42.9521 53.1241 41.6776L52.0052 39.3887ZM35.5394 31.2139C37.2885 31.2139 38.7116 32.637 38.7116 34.3861C38.7116 36.1352 37.2885 37.5583 35.5394 37.5583C33.7903 37.5583 32.3672 36.1352 32.3672 34.3861C32.3672 32.637 33.7903 31.2139 35.5394 31.2139ZM33.9021 45.3214C33.7331 45.4904 33.5117 45.5748 33.2904 45.5748C33.069 45.5748 32.8475 45.4904 32.6786 45.3214C32.3408 44.9836 32.3408 44.4358 32.6786 44.0979L44.0979 32.6787C44.4356 32.3409 44.9835 32.3409 45.3213 32.6787C45.6592 33.0166 45.6592 33.5644 45.3213 33.9022L33.9021 45.3214ZM42.4605 46.7864C40.7113 46.7864 39.2883 45.3633 39.2883 43.6142C39.2883 41.8651 40.7113 40.442 42.4605 40.442C44.2096 40.442 45.6327 41.8651 45.6327 43.6142C45.6327 45.3633 44.2096 46.7864 42.4605 46.7864Z" fill="#E7FE55"/>
<path d="M42.4605 42.1721C41.6654 42.1721 41.0186 42.8189 41.0186 43.614C41.0186 44.409 41.6654 45.0559 42.4605 45.0559C43.2555 45.0559 43.9023 44.409 43.9023 43.614C43.9023 42.8189 43.2555 42.1721 42.4605 42.1721Z" fill="#E7FE55"/>
<path d="M35.5395 32.9441C34.7445 32.9441 34.0977 33.5909 34.0977 34.386C34.0977 35.181 34.7445 35.8279 35.5395 35.8279C36.3346 35.8279 36.9814 35.1811 36.9814 34.386C36.9814 33.591 36.3346 32.9441 35.5395 32.9441Z" fill="#E7FE55"/>
</g>
<defs>
<linearGradient id="paint0_linear_791_171" x1="39" y1="0" x2="39" y2="78" gradientUnits="userSpaceOnUse">
<stop stop-color="#E7FE55"/>
<stop offset="1" stop-color="#E7FE55" stop-opacity="0"/>
</linearGradient>
<linearGradient id="paint1_linear_791_171" x1="39" y1="-28.4054" x2="39" y2="159.703" gradientUnits="userSpaceOnUse">
<stop stop-color="#E7FE55"/>
<stop offset="0.467671" stop-color="#E7FE55" stop-opacity="0"/>
</linearGradient>
<linearGradient id="paint2_linear_791_171" x1="39" y1="-90.7162" x2="39" y2="120.514" gradientUnits="userSpaceOnUse">
<stop stop-color="#E7FE55"/>
<stop offset="0.716291" stop-color="#E7FE55" stop-opacity="0"/>
</linearGradient>
<clipPath id="clip0_791_171">
<rect width="30" height="30" fill="white" transform="translate(24 24)"/>
</clipPath>
</defs>
</svg>
