<svg width="78" height="78" viewBox="0 0 78 78" fill="none" xmlns="http://www.w3.org/2000/svg">
<rect width="78" height="78" rx="39" fill="url(#paint0_linear_791_101)" fill-opacity="0.05"/>
<rect x="10" y="10" width="58" height="58" rx="29" fill="url(#paint1_linear_791_101)" fill-opacity="0.1"/>
<rect x="10.5" y="10.5" width="57" height="57" rx="28.5" stroke="url(#paint2_linear_791_101)" stroke-opacity="0.2"/>
<path fill-rule="evenodd" clip-rule="evenodd" d="M39.1991 42.7803V45.0608C39.1991 45.1254 39.231 45.1807 39.2869 45.213L41.0718 46.2435C41.1893 46.3114 41.3354 46.227 41.3354 46.0913V43.046L48.7023 38.7928L51.0246 40.1335C51.2109 40.2411 51.3175 40.4258 51.3175 40.6409V48.4709C51.3175 48.686 51.2109 48.8707 51.0246 48.9783L44.2436 52.8932C44.0573 53.0008 43.844 53.0008 43.6577 52.8932L36.8767 48.9783C36.6904 48.8707 36.5838 48.686 36.5838 48.4709V41.3853L38.6761 42.5932C38.8416 42.6888 39.0186 42.7511 39.1991 42.7803ZM39.7308 25.1066C39.5445 24.999 39.3312 24.999 39.1449 25.1066L32.3639 29.0216C32.1776 29.1291 32.0709 29.3139 32.0709 29.529V37.3589C32.0709 37.5741 32.1776 37.7588 32.3639 37.8663L39.1449 41.7813C39.3312 41.8889 39.5445 41.8889 39.7308 41.7813L46.5117 37.8663C46.6981 37.7588 46.8047 37.5741 46.8047 37.3589V29.529C46.8047 29.3138 46.6981 29.1291 46.5117 29.0216L44.1894 27.6808L36.8226 31.9341V34.9793C36.8226 35.1151 36.6765 35.1994 36.5589 35.1315L34.7741 34.1011C34.7182 34.0688 34.6862 34.0134 34.6862 33.9488V30.7006L42.053 26.4474L39.7308 25.1066ZM31.1334 35.036L29.2976 36.096V39.3442C29.2976 39.4088 29.3296 39.4641 29.3855 39.4964L31.1703 40.5269C31.2878 40.5948 31.434 40.5104 31.434 40.3747V38.2706C31.5556 38.4329 31.7111 38.572 31.8951 38.6782L35.6462 40.844V46.4238L34.3421 47.1767C34.1558 47.2843 33.9425 47.2843 33.7562 47.1767L26.9753 43.2618C26.789 43.1542 26.6824 42.9695 26.6824 42.7544V34.9244C26.6824 34.7092 26.789 34.5245 26.9753 34.4169L31.1334 32.0163V35.036Z" fill="#E7FE55"/>
<defs>
<linearGradient id="paint0_linear_791_101" x1="39" y1="0" x2="39" y2="78" gradientUnits="userSpaceOnUse">
<stop stop-color="#E7FE55"/>
<stop offset="1" stop-color="#E7FE55" stop-opacity="0"/>
</linearGradient>
<linearGradient id="paint1_linear_791_101" x1="39" y1="-28.4054" x2="39" y2="159.703" gradientUnits="userSpaceOnUse">
<stop stop-color="#E7FE55"/>
<stop offset="0.467671" stop-color="#E7FE55" stop-opacity="0"/>
</linearGradient>
<linearGradient id="paint2_linear_791_101" x1="39" y1="-90.7162" x2="39" y2="120.514" gradientUnits="userSpaceOnUse">
<stop stop-color="#E7FE55"/>
<stop offset="0.716291" stop-color="#E7FE55" stop-opacity="0"/>
</linearGradient>
</defs>
</svg>
