<svg width="78" height="78" viewBox="0 0 78 78" fill="none" xmlns="http://www.w3.org/2000/svg">
<rect width="78" height="78" rx="39" fill="url(#paint0_linear_791_123)" fill-opacity="0.05"/>
<rect x="10" y="10" width="58" height="58" rx="29" fill="url(#paint1_linear_791_123)" fill-opacity="0.1"/>
<rect x="10.5" y="10.5" width="57" height="57" rx="28.5" stroke="url(#paint2_linear_791_123)" stroke-opacity="0.2"/>
<g clip-path="url(#clip0_791_123)">
<path d="M51.3047 36.3047C49.8507 36.3047 48.668 37.4875 48.668 38.9414V40.6992C48.668 41.1841 48.274 41.5781 47.7891 41.5781C47.5917 41.5781 39.3296 41.5781 39.8789 41.5781V39.8203H44.2734C45.7274 39.8203 46.9102 38.6375 46.9102 37.1836C46.9102 36.8214 47.0085 37.6039 45.1008 26.1183C44.8562 24.8909 43.7688 24 42.5156 24H35.4844C34.227 24 33.1386 24.8944 32.8923 26.1544L31.0898 37.1836C31.0898 38.6375 32.2726 39.8203 33.7266 39.8203H38.1211V41.5781H30.2109C29.726 41.5781 29.332 41.1841 29.332 40.6992V38.9414C29.332 37.4875 28.1493 36.3047 26.6953 36.3047H25.8164V38.0625H26.6953C27.1802 38.0625 27.5742 38.4565 27.5742 38.9414V40.6992C27.5742 42.1532 28.757 43.3359 30.2109 43.3359H31.0898V44.2148C31.0898 45.6688 32.2726 46.8516 33.7266 46.8516H38.1211V50.4844H37.2422C36.2414 50.4844 35.5127 51.0826 34.9265 51.5624C34.4827 51.9272 34.099 52.2422 33.7266 52.2422H32.8477V54H33.7266C34.7273 54 35.4561 53.4018 36.0422 52.922C36.486 52.5572 36.8697 52.2422 37.2422 52.2422H40.7578C41.1303 52.2422 41.514 52.5572 41.9578 52.922C42.5439 53.4018 43.2727 54 44.2734 54H45.1523V52.2422H44.2734C43.901 52.2422 43.5173 51.9272 43.0735 51.5624C42.4873 51.0826 41.7586 50.4844 40.7578 50.4844H39.8789V46.8516H44.2734C45.7274 46.8516 46.9102 45.6688 46.9102 44.2148V43.3359H47.7891C49.243 43.3359 50.4258 42.1532 50.4258 40.6992V38.9414C50.4258 38.4565 50.8198 38.0625 51.3047 38.0625H52.1836V36.3047H51.3047ZM39.8789 36.3047H38.1211V34.5469H39.8789V36.3047ZM39 27.5156C40.4539 27.5156 41.6367 28.6984 41.6367 30.1523C41.6367 31.1351 41.096 32.0295 40.2265 32.487C40.0188 32.5968 39.8789 32.8784 39.8789 33.1882H38.1211C38.1211 32.2131 38.6146 31.3488 39.4077 30.9317C39.6987 30.7789 39.8789 30.4802 39.8789 30.1523C39.8789 29.6674 39.4849 29.2734 39 29.2734C38.5151 29.2734 38.1211 29.6674 38.1211 30.1523H36.3633C36.3633 28.6984 37.5461 27.5156 39 27.5156Z" fill="#E7FE55"/>
</g>
<defs>
<linearGradient id="paint0_linear_791_123" x1="39" y1="0" x2="39" y2="78" gradientUnits="userSpaceOnUse">
<stop stop-color="#E7FE55"/>
<stop offset="1" stop-color="#E7FE55" stop-opacity="0"/>
</linearGradient>
<linearGradient id="paint1_linear_791_123" x1="39" y1="-28.4054" x2="39" y2="159.703" gradientUnits="userSpaceOnUse">
<stop stop-color="#E7FE55"/>
<stop offset="0.467671" stop-color="#E7FE55" stop-opacity="0"/>
</linearGradient>
<linearGradient id="paint2_linear_791_123" x1="39" y1="-90.7162" x2="39" y2="120.514" gradientUnits="userSpaceOnUse">
<stop stop-color="#E7FE55"/>
<stop offset="0.716291" stop-color="#E7FE55" stop-opacity="0"/>
</linearGradient>
<clipPath id="clip0_791_123">
<rect width="30" height="30" fill="white" transform="translate(24 24)"/>
</clipPath>
</defs>
</svg>
