<svg width="15" height="16" viewBox="0 0 15 16" fill="none" xmlns="http://www.w3.org/2000/svg">
<g clip-path="url(#clip0_1331_2916)">
<path d="M7.18185 2.55469V3.66265H6.0739V2.55469H7.18185ZM6.0739 9.06393V10.6428H7.18185V9.06393H6.0739ZM9.39776 15.0746V13.9666H8.28981V12.8587H7.18185V15.0746H9.39776ZM11.6137 6.84802H8.28981V7.95597H11.6137V6.84802ZM11.6137 9.06393H13.1648V7.95597H11.6137V9.06393ZM11.6137 10.6428V11.7507H14.2728V9.06393H13.1648V10.6428H11.6137ZM8.28981 0.892761H7.18185V2.55469H8.28981V0.892761ZM7.18185 5.87856H8.28981V3.66265H7.18185V4.7706H6.0739V7.95597H7.18185V5.87856ZM0.0909424 6.84802V9.06393H1.1989V7.95597H2.86083V6.84802H0.0909424ZM8.28981 9.06393V7.95597H7.18185V9.06393H8.28981ZM10.5057 10.1719H11.6137V9.06393H10.5057V10.1719ZM13.1648 7.95597H14.2728V6.84802H13.1648V7.95597ZM9.39776 9.06393H8.28981V10.6428H7.18185V11.7507H9.39776V9.06393ZM6.0739 12.8587H7.18185V11.7507H6.0739V12.8587ZM9.39776 11.7507V12.8587H11.6137V11.7507H9.39776ZM12.7216 13.9666V12.8587H11.6137V13.9666H12.7216ZM13.6819 15.0746C14.0082 15.0746 14.2728 14.81 14.2728 14.4837V13.9666H12.7216V15.0746H13.6819ZM10.5057 15.0746H11.6137V13.9666H10.5057V15.0746ZM5.07674 7.95597V6.84802H3.96878V7.95597H2.86083V9.06393H6.0739V7.95597H5.07674ZM5.07674 5.28765C5.07674 5.614 4.81218 5.87856 4.48583 5.87856H0.681852C0.355501 5.87856 0.0909424 5.614 0.0909424 5.28765V1.48367C0.0909424 1.15732 0.355501 0.892761 0.681852 0.892761H4.48583C4.81218 0.892761 5.07674 1.15732 5.07674 1.48367V5.28765ZM3.96878 2.59162C3.96878 2.26527 3.70422 2.00072 3.37787 2.00072H1.78981C1.46346 2.00072 1.1989 2.26527 1.1989 2.59162V4.17969C1.1989 4.50604 1.46346 4.7706 1.78981 4.7706H3.37787C3.70422 4.7706 3.96878 4.50604 3.96878 4.17969V2.59162ZM3.13782 3.38566C3.13782 3.07971 2.88979 2.83168 2.58384 2.83168C2.27789 2.83168 2.02986 3.07971 2.02986 3.38566C2.02986 3.69161 2.27789 3.93964 2.58384 3.93964C2.88979 3.93964 3.13782 3.69161 3.13782 3.38566ZM13.6819 0.892761C14.0082 0.892761 14.2728 1.15732 14.2728 1.48367V5.28765C14.2728 5.614 14.0082 5.87856 13.6819 5.87856H9.87787C9.55152 5.87856 9.28697 5.614 9.28697 5.28765V1.48367C9.28697 1.15732 9.55152 0.892761 9.87787 0.892761H13.6819ZM13.1648 2.59162C13.1648 2.26527 12.9002 2.00072 12.5739 2.00072H10.9858C10.6595 2.00072 10.3949 2.26527 10.3949 2.59162V4.17969C10.3949 4.50604 10.6595 4.7706 10.9858 4.7706H12.5739C12.9002 4.7706 13.1648 4.50604 13.1648 4.17969V2.59162ZM12.3338 3.38566C12.3338 3.07971 12.0858 2.83168 11.7799 2.83168C11.4739 2.83168 11.2259 3.07971 11.2259 3.38566C11.2259 3.69161 11.4739 3.93964 11.7799 3.93964C12.0858 3.93964 12.3338 3.69161 12.3338 3.38566ZM0.0909424 10.6797C0.0909424 10.3533 0.355501 10.0888 0.681852 10.0888H4.48583C4.81218 10.0888 5.07674 10.3533 5.07674 10.6797V14.4837C5.07674 14.81 4.81218 15.0746 4.48583 15.0746H0.681852C0.355501 15.0746 0.0909424 14.81 0.0909424 14.4837V10.6797ZM1.1989 13.3757C1.1989 13.7021 1.46346 13.9666 1.78981 13.9666H3.37787C3.70422 13.9666 3.96878 13.7021 3.96878 13.3757V11.7876C3.96878 11.4613 3.70422 11.1967 3.37787 11.1967H1.78981C1.46346 11.1967 1.1989 11.4613 1.1989 11.7876V13.3757ZM2.02986 12.5817C2.02986 12.8876 2.27789 13.1357 2.58384 13.1357C2.88979 13.1357 3.13782 12.8876 3.13782 12.5817C3.13782 12.2757 2.88979 12.0277 2.58384 12.0277C2.27789 12.0277 2.02986 12.2757 2.02986 12.5817Z" fill="black"/>
</g>
<defs>
<clipPath id="clip0_1331_2916">
<rect width="14.1818" height="14.1818" fill="white" transform="translate(0.0909424 0.892761)"/>
</clipPath>
</defs>
</svg>
