<svg width="42" height="42" viewBox="0 0 42 42" fill="none" xmlns="http://www.w3.org/2000/svg">
<rect width="42" height="42" rx="21" fill="#E7FE55"/>
<path d="M16.4491 28.1233C16.4491 30.6064 14.4361 32.6193 11.953 32.6193C9.46992 32.6193 7.45697 30.6064 7.45697 28.1233C7.45697 25.6401 9.46992 23.6272 11.953 23.6272C14.4361 23.6272 16.4491 25.6401 16.4491 28.1233Z" fill="#161716"/>
<path d="M34.5416 14.0393C34.5416 16.5224 32.5287 18.5353 30.0456 18.5353C27.5625 18.5353 25.5495 16.5224 25.5495 14.0393C25.5495 11.5562 27.5625 9.54321 30.0456 9.54321C32.5287 9.54321 34.5416 11.5562 34.5416 14.0393Z" fill="#161716"/>
<path d="M7.43671 11.4839C11.0832 8.45529 16.4945 8.95622 19.5231 12.6027L34.4011 30.5164C30.7546 33.545 25.3433 33.044 22.3147 29.3975L7.43671 11.4839Z" fill="#161716"/>
</svg>
