<svg width="78" height="78" viewBox="0 0 78 78" fill="none" xmlns="http://www.w3.org/2000/svg">
<rect width="78" height="78" rx="39" fill="url(#paint0_linear_875_180)" fill-opacity="0.05"/>
<rect x="10" y="10" width="58" height="58" rx="29" fill="url(#paint1_linear_875_180)" fill-opacity="0.1"/>
<rect x="10.5" y="10.5" width="57" height="57" rx="28.5" stroke="url(#paint2_linear_875_180)" stroke-opacity="0.2"/>
<g clip-path="url(#clip0_875_180)">
<path d="M38.7863 38.4511C40.7717 38.4511 42.4908 37.739 43.8954 36.3342C45.3001 34.9295 46.0121 33.2109 46.0121 31.2253C46.0121 29.2405 45.3001 27.5216 43.8952 26.1165C42.4903 24.712 40.7714 24 38.7863 24C36.8008 24 35.0821 24.712 33.6775 26.1167C32.2728 27.5213 31.5605 29.2402 31.5605 31.2253C31.5605 33.2109 32.2728 34.9298 33.6777 36.3344C35.0826 37.7388 36.8015 38.4511 38.7863 38.4511Z" fill="#E7FE55"/>
<path d="M51.4294 47.0685C51.3889 46.484 51.307 45.8463 51.1864 45.1729C51.0646 44.4945 50.9078 43.8532 50.7201 43.267C50.5263 42.6612 50.2626 42.0629 49.9367 41.4896C49.5984 40.8945 49.201 40.3763 48.7552 39.9499C48.2889 39.5038 47.7181 39.1451 47.058 38.8835C46.4002 38.6233 45.6712 38.4914 44.8914 38.4914C44.5852 38.4914 44.289 38.6171 43.717 38.9895C43.365 39.2191 42.9532 39.4846 42.4937 39.7782C42.1007 40.0286 41.5683 40.2632 40.9107 40.4756C40.2691 40.6832 39.6178 40.7885 38.9748 40.7885C38.3319 40.7885 37.6807 40.6832 37.0385 40.4756C36.3816 40.2634 35.8492 40.0288 35.4567 39.7784C35.0014 39.4875 34.5894 39.222 34.2322 38.9893C33.6609 38.6169 33.3645 38.4912 33.0582 38.4912C32.2782 38.4912 31.5494 38.6233 30.8919 38.8837C30.2322 39.1449 29.6612 39.5036 29.1945 39.9501C28.7488 40.3767 28.3513 40.8947 28.0134 41.4896C27.6877 42.0629 27.4241 42.661 27.23 43.2673C27.0425 43.8534 26.8857 44.4945 26.764 45.1729C26.6434 45.8454 26.5614 46.4833 26.5209 47.0692C26.4811 47.6432 26.4609 48.239 26.4609 48.8407C26.4609 50.4068 26.9588 51.6745 27.9404 52.6095C28.91 53.5321 30.1929 54.0002 31.7529 54.0002H46.1981C47.7582 54.0002 49.0406 53.5324 50.0104 52.6095C50.9923 51.6752 51.4901 50.4072 51.4901 48.8405C51.4899 48.236 51.4695 47.6398 51.4294 47.0685Z" fill="#E7FE55"/>
</g>
<defs>
<linearGradient id="paint0_linear_875_180" x1="39" y1="0" x2="39" y2="78" gradientUnits="userSpaceOnUse">
<stop stop-color="#E7FE55"/>
<stop offset="1" stop-color="#E7FE55" stop-opacity="0"/>
</linearGradient>
<linearGradient id="paint1_linear_875_180" x1="39" y1="-28.4054" x2="39" y2="159.703" gradientUnits="userSpaceOnUse">
<stop stop-color="#E7FE55"/>
<stop offset="0.467671" stop-color="#E7FE55" stop-opacity="0"/>
</linearGradient>
<linearGradient id="paint2_linear_875_180" x1="39" y1="-90.7162" x2="39" y2="120.514" gradientUnits="userSpaceOnUse">
<stop stop-color="#E7FE55"/>
<stop offset="0.716291" stop-color="#E7FE55" stop-opacity="0"/>
</linearGradient>
<clipPath id="clip0_875_180">
<rect width="30" height="30" fill="white" transform="translate(24 24)"/>
</clipPath>
</defs>
</svg>
