<svg width="78" height="78" viewBox="0 0 78 78" fill="none" xmlns="http://www.w3.org/2000/svg">
<rect width="78" height="78" rx="39" fill="url(#paint0_linear_875_163)" fill-opacity="0.05"/>
<rect x="10" y="10" width="58" height="58" rx="29" fill="url(#paint1_linear_875_163)" fill-opacity="0.1"/>
<rect x="10.5" y="10.5" width="57" height="57" rx="28.5" stroke="url(#paint2_linear_875_163)" stroke-opacity="0.2"/>
<g clip-path="url(#clip0_875_163)">
<path d="M24 30V48C24 49.5913 24.6321 51.1174 25.7574 52.2426C26.8826 53.3679 28.4087 54 30 54H48C49.5913 54 51.1174 53.3679 52.2426 52.2426C53.3679 51.1174 54 49.5913 54 48V30C54 28.4087 53.3679 26.8826 52.2426 25.7574C51.1174 24.6321 49.5913 24 48 24H30C28.4087 24 26.8826 24.6321 25.7574 25.7574C24.6321 26.8826 24 28.4087 24 30ZM46.0902 36.3894C46.0902 36.5694 45.9804 36.6624 45.7986 36.6624H40.6758V47.7102C40.6758 47.9106 40.5846 48.0018 40.4022 48.0018H37.5768C37.3968 48.0018 37.3032 47.9106 37.3032 47.7102V36.66H32.199C32.0166 36.66 31.9254 36.569 31.9254 36.387V34.0008C31.9254 33.8188 32.0166 33.7278 32.199 33.7278H45.7986C45.9786 33.7278 46.0902 33.819 46.0902 34.0008V36.3894ZM46.0902 32.6634C46.0902 32.8434 45.9804 32.9364 45.7986 32.9364H32.199C32.019 32.9364 31.9254 32.8458 31.9254 32.6634V30.2748C31.9254 30.0928 32.0166 30.0018 32.199 30.0018H45.7986C45.9786 30.0018 46.0902 30.093 46.0902 30.2748V32.6634Z" fill="#E7FE55"/>
</g>
<defs>
<linearGradient id="paint0_linear_875_163" x1="39" y1="0" x2="39" y2="78" gradientUnits="userSpaceOnUse">
<stop stop-color="#E7FE55"/>
<stop offset="1" stop-color="#E7FE55" stop-opacity="0"/>
</linearGradient>
<linearGradient id="paint1_linear_875_163" x1="39" y1="-28.4054" x2="39" y2="159.703" gradientUnits="userSpaceOnUse">
<stop stop-color="#E7FE55"/>
<stop offset="0.467671" stop-color="#E7FE55" stop-opacity="0"/>
</linearGradient>
<linearGradient id="paint2_linear_875_163" x1="39" y1="-90.7162" x2="39" y2="120.514" gradientUnits="userSpaceOnUse">
<stop stop-color="#E7FE55"/>
<stop offset="0.716291" stop-color="#E7FE55" stop-opacity="0"/>
</linearGradient>
<clipPath id="clip0_875_163">
<rect width="30" height="30" fill="white" transform="translate(24 24)"/>
</clipPath>
</defs>
</svg>
