<svg width="40" height="41" viewBox="0 0 40 41" fill="none" xmlns="http://www.w3.org/2000/svg">
<path d="M34.1733 6.19145C30.5685 2.60334 25.5888 0.383789 20.0878 0.383789C9.08707 0.383789 0.16751 9.26067 0.16751 20.2117C0.16751 23.8558 1.15515 27.2692 2.87715 30.2037L2.82623 30.1103L0 40.3838L10.5585 37.6267C13.307 39.146 16.5862 40.0397 20.0757 40.0397H20.0838C31.0845 40.0357 40 31.1574 40 20.2077C40 14.7349 37.7728 9.78088 34.172 6.19278L34.1733 6.19145ZM20.0838 36.6903H20.0771C16.9694 36.6903 14.0601 35.8366 11.5769 34.352L11.652 34.3934L11.0476 34.0373L4.78274 35.6739L6.45382 29.5928L6.05984 28.9699C4.47184 26.4862 3.52843 23.4597 3.52843 20.2131C3.52843 11.1134 10.9404 3.7358 20.0824 3.7358C29.2244 3.7358 36.6364 11.1134 36.6364 20.2131C36.6364 29.3127 29.2271 36.6903 20.0838 36.6903ZM29.1641 24.3507C28.667 24.1026 26.22 22.9061 25.7643 22.7394C25.3074 22.574 24.975 22.4926 24.6427 22.9888C24.313 23.4837 23.3589 24.5988 23.0681 24.9296C22.7787 25.2617 22.4865 25.3018 21.9893 25.055C20.4483 24.4334 19.1243 23.6051 17.9731 22.5847L17.9865 22.5967C16.9158 21.6096 15.9979 20.4798 15.2568 19.234L15.2193 19.1646C14.9298 18.6698 15.1884 18.4017 15.4364 18.1549C15.6602 17.9335 15.9349 17.576 16.1828 17.2879C16.3784 17.0491 16.5459 16.7757 16.6733 16.4822L16.6813 16.4596C16.7389 16.3435 16.7724 16.2088 16.7724 16.0647C16.7724 15.89 16.7228 15.7273 16.6371 15.5885L16.6398 15.5925C16.5138 15.3444 15.5194 12.9061 15.1054 11.9137C14.7007 10.948 14.2893 11.0801 13.9851 11.0641C13.6956 11.0507 13.3633 11.0481 13.0309 11.0481C12.5016 11.0614 12.0312 11.2988 11.7069 11.6656L11.7056 11.6683C10.6308 12.6834 9.96348 14.1146 9.96348 15.7006C9.96348 15.7353 9.96348 15.7713 9.96482 15.806V15.8006C10.1404 17.7574 10.8774 19.5141 12.0111 20.9453L11.995 20.9253C14.1445 24.0986 17.0096 26.637 20.3719 28.347L20.4978 28.4043C21.2322 28.7351 22.1729 29.0886 23.1351 29.3914L23.3348 29.4461C23.9271 29.6328 24.6092 29.7409 25.3168 29.7409C25.7228 29.7409 26.1222 29.7049 26.5081 29.6368L26.4665 29.6422C27.8991 29.3447 29.0877 28.4844 29.8127 27.3092L29.8248 27.2866C30.0459 26.7984 30.1745 26.2288 30.1745 25.6299C30.1745 25.3831 30.1531 25.1417 30.1116 24.9069L30.1156 24.9323C29.9923 24.7255 29.66 24.6028 29.1614 24.3534L29.1641 24.3507Z" fill="#565656"/>
</svg>
