<svg width="78" height="78" viewBox="0 0 78 78" fill="none" xmlns="http://www.w3.org/2000/svg">
<rect width="78" height="78" rx="39" fill="url(#paint0_linear_865_127)" fill-opacity="0.05"/>
<rect x="10" y="10" width="58" height="58" rx="29" fill="url(#paint1_linear_865_127)" fill-opacity="0.1"/>
<rect x="10.5" y="10.5" width="57" height="57" rx="28.5" stroke="url(#paint2_linear_865_127)" stroke-opacity="0.2"/>
<path d="M24 49.5469H31.0898V52.1836H24V49.5469Z" fill="#E7FE55"/>
<path d="M24 45.1523H31.0898V47.7891H24V45.1523Z" fill="#E7FE55"/>
<path d="M24 40.7578H31.0898V43.3945H24V40.7578Z" fill="#E7FE55"/>
<path d="M32.8477 49.5469H39.8789V52.1836H32.8477V49.5469Z" fill="#E7FE55"/>
<path d="M32.8477 45.1523H39.8789V47.7891H32.8477V45.1523Z" fill="#E7FE55"/>
<path d="M49.5985 32.0862C51.1392 31.1646 52.1836 29.4965 52.1836 27.5742H48.68C48.4328 27.3707 46.8518 25.8164 45.1523 25.8164C43.5272 25.8164 42.0581 27.2175 41.6247 27.5742H38.1211C38.1211 29.4965 39.1656 31.1645 40.7063 32.0861C41.5421 31.6954 42.4402 31.4225 43.3754 31.2594L42.6083 29.7251L44.1807 28.9389L45.1523 30.8821L46.1239 28.9389L47.6964 29.7251L46.9293 31.2594C47.8646 31.4225 48.7627 31.6955 49.5985 32.0862Z" fill="#E7FE55"/>
<path d="M45.1523 32.8477C40.2983 32.8477 36.3633 36.7827 36.3633 41.6367V43.3945H41.6367V52.1836H50.4844C52.426 52.1836 54 50.6096 54 48.668V41.6367C54 36.7827 50.0064 32.8477 45.1523 32.8477ZM45.1523 42.5156C46.6063 42.5156 47.7891 43.6984 47.7891 45.1523C47.7891 46.2967 47.0521 47.2631 46.0312 47.6272V49.5469H44.2734V47.6272C43.2526 47.2631 42.5156 46.2967 42.5156 45.1523H44.2734C44.2734 45.6373 44.6682 46.0312 45.1523 46.0312C45.6364 46.0312 46.0312 45.6373 46.0312 45.1523C46.0312 44.6674 45.6364 44.2734 45.1523 44.2734C43.6984 44.2734 42.5156 43.0907 42.5156 41.6367C42.5156 40.4924 43.2526 39.5259 44.2734 39.1619V37.2422H46.0312V39.1619C47.0521 39.5259 47.7891 40.4924 47.7891 41.6367H46.0312C46.0312 41.1518 45.6364 40.7578 45.1523 40.7578C44.6682 40.7578 44.2734 41.1518 44.2734 41.6367C44.2734 42.1216 44.6682 42.5156 45.1523 42.5156Z" fill="#E7FE55"/>
<defs>
<linearGradient id="paint0_linear_865_127" x1="39" y1="0" x2="39" y2="78" gradientUnits="userSpaceOnUse">
<stop stop-color="#E7FE55"/>
<stop offset="1" stop-color="#E7FE55" stop-opacity="0"/>
</linearGradient>
<linearGradient id="paint1_linear_865_127" x1="39" y1="-28.4054" x2="39" y2="159.703" gradientUnits="userSpaceOnUse">
<stop stop-color="#E7FE55"/>
<stop offset="0.467671" stop-color="#E7FE55" stop-opacity="0"/>
</linearGradient>
<linearGradient id="paint2_linear_865_127" x1="39" y1="-90.7162" x2="39" y2="120.514" gradientUnits="userSpaceOnUse">
<stop stop-color="#E7FE55"/>
<stop offset="0.716291" stop-color="#E7FE55" stop-opacity="0"/>
</linearGradient>
</defs>
</svg>
