<svg width="78" height="78" viewBox="0 0 78 78" fill="none" xmlns="http://www.w3.org/2000/svg">
<rect width="78" height="78" rx="39" fill="url(#paint0_linear_865_114)" fill-opacity="0.05"/>
<rect x="10" y="10" width="58" height="58" rx="29" fill="url(#paint1_linear_865_114)" fill-opacity="0.1"/>
<rect x="10.5" y="10.5" width="57" height="57" rx="28.5" stroke="url(#paint2_linear_865_114)" stroke-opacity="0.2"/>
<path d="M42.2639 28.687H35.7361C34.2668 30.5888 32.1404 31.4952 30.4158 31.9268V37.9363C30.4158 40.781 31.6621 43.4237 34.1202 45.7912C35.2595 46.8887 37.2379 48.3549 39.0009 49.0915C40.762 48.3555 42.7401 46.8892 43.8798 45.7912C46.3391 43.4243 47.5859 40.7816 47.5859 37.9363V31.9269C45.8607 31.4955 43.7336 30.5892 42.2639 28.687Z" fill="#E7FE55"/>
<path d="M51.1046 28.1295C50.2471 28.1295 45.9243 27.9772 45.0298 24.9713L44.8802 24.4688H33.1214L32.9719 24.9713C32.0774 27.9772 27.7533 28.1295 26.8955 28.1295H26.1924V37.9362C26.1924 42.9623 28.9102 46.6341 31.1901 48.8293C33.7867 51.3294 36.8929 52.9679 38.8194 53.4827L39.001 53.5312L39.1826 53.4826C41.1085 52.9677 44.214 51.3292 46.8102 48.8292C49.0901 46.6339 51.8078 42.962 51.8078 37.9362V28.1295H51.1046ZM48.9922 37.9362C48.9922 39.6213 48.6024 41.2659 47.8339 42.8246C47.1409 44.2298 46.1388 45.5687 44.8551 46.804C43.5186 48.0916 41.2674 49.7357 39.2518 50.5055L39.0009 50.6013L38.7501 50.5055C36.7323 49.7348 34.4809 48.0911 33.1448 46.8038C31.8619 45.5683 30.8603 44.2294 30.1676 42.8245C29.3992 41.2657 29.0096 39.6211 29.0096 37.9362V30.7917L29.5717 30.6767C31.2069 30.3421 33.4419 29.5335 34.8037 27.5815L35.0136 27.2807H42.9864L43.1963 27.5815C44.5583 29.5338 46.7941 30.3422 48.4298 30.6767L48.9921 30.7917V37.9362H48.9922Z" fill="#E7FE55"/>
<defs>
<linearGradient id="paint0_linear_865_114" x1="39" y1="0" x2="39" y2="78" gradientUnits="userSpaceOnUse">
<stop stop-color="#E7FE55"/>
<stop offset="1" stop-color="#E7FE55" stop-opacity="0"/>
</linearGradient>
<linearGradient id="paint1_linear_865_114" x1="39" y1="-28.4054" x2="39" y2="159.703" gradientUnits="userSpaceOnUse">
<stop stop-color="#E7FE55"/>
<stop offset="0.467671" stop-color="#E7FE55" stop-opacity="0"/>
</linearGradient>
<linearGradient id="paint2_linear_865_114" x1="39" y1="-90.7162" x2="39" y2="120.514" gradientUnits="userSpaceOnUse">
<stop stop-color="#E7FE55"/>
<stop offset="0.716291" stop-color="#E7FE55" stop-opacity="0"/>
</linearGradient>
</defs>
</svg>
